<svg
   width="235mm"
   height="230mm"
   viewBox="0 0 235 230"
   version="1.1"
   id="svg2342"
   inkscape:version="1.2.2 (732a01da63, 2022-12-09)"
   xmlns:inkscape="http://www.inkscape.org/namespaces/inkscape"
   xmlns:sodipodi="http://sodipodi.sourceforge.net/DTD/sodipodi-0.dtd"
   xmlns="http://www.w3.org/2000/svg"
   xmlns:svg="http://www.w3.org/2000/svg">
  <sodipodi:namedview
     id="namedview2344"
     pagecolor="#ffffff"
     bordercolor="#000000"
     borderopacity="0.25"
     inkscape:showpageshadow="2"
     inkscape:pageopacity="0.0"
     inkscape:pagecheckerboard="0"
     inkscape:deskcolor="#d1d1d1"
     inkscape:document-units="mm"
     showgrid="false"
     inkscape:zoom="0.52724989"
     inkscape:cx="354.67054"
     inkscape:cy="476.05511"
     inkscape:window-width="1920"
     inkscape:window-height="1017"
     inkscape:window-x="-8"
     inkscape:window-y="-8"
     inkscape:window-maximized="1"
     inkscape:current-layer="layer1" />
  <defs
     id="defs2339" />
  <g
     inkscape:label="Слой 1"
     inkscape:groupmode="layer"
     id="layer1">
    <path
       style="fill:#00019e;fill-opacity:1;stroke-width:0.264583"
       d="m 114.02368,228.76029 -4.08918,-1.66062 -3.43958,-1.52287 -3.43958,-1.52287 -3.70417,-1.84852 -3.70417,-1.84851 -3.968755,-2.26931 -3.96874,-2.2693 -2.51355,-1.57911 -2.51354,-1.5791 -2.38125,-1.58551 -2.38125,-1.58551 -3.30729,-2.39655 -3.30729,-2.39656 -1.85208,-1.46143 -1.85209,-1.46143 -3.04271,-2.6821 -3.0427,-2.68211 -4.7625,-4.86523 -4.7625,-4.86524 -3.05619,-3.83422 -3.05618,-3.83423 -1.63821,-2.28742 -1.63821,-2.28742 -1.25873,0.63627 -1.25873,0.63627 -5.55625,2.66626 -5.55625,2.66626 -2.64584,1.0552 -2.64583,1.0552 -0.26458,0.11373 -0.26459,0.11373 -0.0607,-8.10965 -0.0607,-8.10966 -0.0903,-0.0903 -0.0903,-0.0903 -6.074179,0.38906 -6.07418,0.38907 -4.4728704,0.52916 -4.4728595,0.52917 -0.0915,-0.0915 -0.0915,-0.0915 0.8985895,-1.9545 0.89858,-1.95449 2.39632,-5.29167 2.39631,-5.29167 0.94626,-2.30012 0.9462604,-2.30013 v -0.28246 -0.28245 l -1.3654604,-2.17992 -1.36546,-2.17992 -3.09771,-4.7625 -3.0977191,-4.7625 -0.42687004,-0.83758 -0.42687,-0.83758 2.04577914,-0.70863 2.04577,-0.70862 4.23333,-1.44153 4.2333404,-1.44152 3.175,-0.94242 3.174999,-0.94243 3.175,-0.90729 3.175,-0.9073 3.175,-0.80747 3.175,-0.80746 6.08541,-1.28139 6.08542,-1.28139 4.36562,-0.79834 4.36563,-0.79835 3.04271,-0.44896 3.04271,-0.44895 0.33072,-0.25931 0.33073,-0.25931 v -0.77918 -0.77919 l -0.46302,0.12916 -0.46302,0.12915 -2.11666,0.17641 -2.11667,0.1764 -6.21771,1.03489 -6.21771,1.0349 -2.3407,0.41566 -2.34071,0.41567 -0.17283,-0.17208 -0.17284,-0.17208 -0.0859,-3.83083 -0.0859,-3.83085 -0.70783,0.0818 -0.70783,0.0818 -0.0728,4.16384 -0.0728,4.16382 -0.58861,0.13135 -0.58861,0.13134 -5.50633,1.19493 -5.50634,1.19494 h -0.51293 -0.51293 v -11.7918 -11.791794 l 0.46302,0.13301 0.46302,0.13302 1.85209,0.535674 1.85208,0.53568 5.34736,1.33352 5.34737,1.33351 h 0.56166 0.56166 l -0.0882,-0.22108 -0.0882,-0.22107 -1.9477,-1.69715 -1.9477,-1.697164 -1.35959,-1.14018 -1.35959,-1.14018 -0.44066,-0.35944 -0.44066,-0.35944 -0.15465,0.15466 -0.15465,0.15465 v 0.63838 0.63839 l -0.72761,-0.14639 -0.7276,-0.14639 -3.37919,-0.53609 -3.37918,-0.53609 h -0.12655 -0.12654 V 59.162929 21.20444 l 3.77031,-1.833221 3.77031,-1.833221 3.13409,-1.226738 3.13409,-1.226738 5.068,-1.696378 5.06799,-1.696379 4.63021,-1.319903 4.63021,-1.319903 4.36562,-1.061558 4.36563,-1.061559 4.36562,-0.9243167 4.36563,-0.924314 3.0427,-0.53813 3.04271,-0.5381288 3.70417,-0.52506 3.70417,-0.525061 4.76249,-0.536499 4.762515,-0.536498 5.95312,-0.41896 5.95312,-0.41896 9.92188,-0.01877 9.92187,-0.01877 4.89479,0.313172 4.8948,0.313172 6.48229,0.657097 6.48229,0.657098 4.63021,0.652828 4.63021,0.6528288 4.7625,0.909268 4.76249,0.90927 4.36563,0.9659267 4.36562,0.96593 3.43959,0.922666 3.43958,0.922663 4.89479,1.458727 4.89479,1.458727 3.04271,1.056235 3.04271,1.056236 1.71979,0.674631 1.71979,0.674632 3.175,1.391433 3.175,1.391431 1.98438,1.022183 1.98437,1.022183 0.067,38.004944 0.067,38.00494 -0.5962,0.14194 -0.59621,0.14193 -2.91042,0.42282 -2.91041,0.42283 -0.72761,0.11899 -0.7276,0.119 v -0.65485 -0.65484 h -0.35339 -0.3534 l -2.49087,2.10494 -2.49088,2.104954 -1.32292,1.17714 -1.32292,1.17713 0.15304,0.1562 0.15303,0.1562 3.94801,-0.90661 3.94801,-0.9066 2.51354,-0.67349 2.51354,-0.6735 1.78594,-0.49974 1.78593,-0.499734 v 11.738434 11.73844 h -0.48506 -0.48507 l -4.07899,-0.89928 -4.079,-0.89928 -2.0209,-0.4351 -2.0209,-0.43509 -0.19205,-4.22188 -0.19206,-4.22188 -0.30059,0.004 -0.30058,0.004 -0.3063,0.1949 -0.3063,0.19491 -0.0864,3.79633 -0.0864,3.79633 -0.93024,-0.14183 -0.93025,-0.14182 -7.9375,-1.32987 -7.9375,-1.32987 -2.38125,-0.2368 -2.38125,-0.2368 -0.16593,0.09 -0.16594,0.09 0.17587,0.85991 0.17587,0.8599 1.18069,0.18479 1.18069,0.18479 4.49792,0.70722 4.49792,0.70722 7.01146,1.41298 7.01145,1.41297 5.42396,1.36247 5.42396,1.36247 6.87917,2.07222 6.87916,2.07223 2.38125,0.82737 2.38125,0.82738 2.11667,0.82337 2.11666,0.82338 0.10095,0.0792 0.10095,0.0792 -1.93558,2.98586 -1.93558,2.98586 -2.97482,4.53098 -2.97481,4.53097 -0.0803,0.36382 -0.0803,0.36382 0.63569,1.5875 0.63569,1.5875 1.51339,3.43958 1.51338,3.43958 2.15506,4.5985 2.15506,4.59849 -0.12468,0.12468 -0.12468,0.12468 -1.80321,-0.29159 -1.80322,-0.29159 -3.83646,-0.37975 -3.83645,-0.37974 -3.57188,-0.15712 -3.57187,-0.15711 -1.38907,-0.14345 -1.38906,-0.14345 v 8.22112 8.22112 h -0.13472 -0.13472 l -2.70955,-1.16064 -2.70955,-1.16064 -4.89479,-2.30804 -4.89479,-2.30804 -2.11321,-0.91455 -2.1132,-0.91454 -0.40034,0.51388 -0.40034,0.51387 -1.5875,2.21256 -1.5875,2.21255 -2.22765,2.78128 -2.22765,2.78127 -3.12898,3.48279 -3.12898,3.48279 -3.6392,3.39708 -3.6392,3.39707 -1.71979,1.4798 -1.7198,1.4798 -2.38125,1.83412 -2.38124,1.83412 -3.3073,2.39922 -3.30729,2.39923 -1.98437,1.32682 -1.98438,1.32682 -4.49791,2.7094 -4.49792,2.70939 -6.48229,3.22979 -6.48229,3.2298 -3.04271,1.2785 -3.04271,1.27851 -1.98437,0.73215 -1.98438,0.73216 -1.33479,0.5285 -1.33478,0.5285 -4.08917,-1.66062 z m 7.60878,-8.5072 3.38329,-1.2225 4.58502,-1.95836 4.58502,-1.95837 3.88165,-1.93585 3.88165,-1.93586 2.64583,-1.52758 2.64583,-1.52759 3.30729,-2.09958 3.3073,-2.09958 2.18961,-1.53193 2.18961,-1.53192 3.20196,-2.47668 3.20195,-2.47667 2.54593,-2.24088 2.54593,-2.24089 3.58447,-3.59361 3.58447,-3.59361 2.52809,-3.04271 2.5281,-3.04271 2.15566,-2.86908 2.15567,-2.8691 v -0.12308 -0.12309 l -0.22629,0.13986 -0.2263,0.13986 -2.06877,2.72002 -2.06877,2.72003 -2.97251,3.43958 -2.97251,3.43959 -4.19127,4.11211 -4.19129,4.11211 -2.38124,1.98414 -2.38125,1.98414 -2.91042,2.12195 -2.91042,2.12195 -3.57187,2.26075 -3.57188,2.26076 -2.91041,1.59108 -2.91042,1.59109 -2.77813,1.4663 -2.77812,1.46631 -3.70417,1.64061 -3.70416,1.64062 -3.96875,1.58628 -3.96875,1.58628 -2.38125,0.85255 -2.38125,0.85255 -1.05834,-0.32927 -1.05833,-0.32928 -2.24896,-0.91304 -2.24896,-0.91304 -4.23333,-1.77439 -4.23333,-1.77439 -5.68854,-2.84637 -5.688545,-2.84638 -2.64584,-1.53254 -2.64583,-1.53253 -2.24896,-1.34857 -2.24896,-1.34856 -2.64583,-1.8372 -2.64583,-1.83719 -1.45521,-1.07843 -1.45521,-1.07842 -2.24896,-1.83744 -2.24896,-1.83743 -2.73319,-2.66335 -2.73319,-2.66335 -2.31365,-2.38125 -2.31366,-2.38125 -1.32233,-1.4552 -1.32234,-1.45521 -2.13978,-2.56938 -2.13979,-2.56937 -0.86213,-1.2005 -0.86213,-1.2005 -0.11412,0.11412 -0.11412,0.11411 2.51514,3.25889 2.51514,3.25888 0.48779,0.53278 0.48778,0.53279 1.95832,2.24534 1.95832,2.24534 3.60449,3.57187 3.60448,3.57188 3.30074,2.76418 3.30073,2.76417 3.43959,2.54642 3.43958,2.54642 2.38125,1.59182 2.38125,1.59183 3.30729,1.98346 3.30729,1.98345 1.852095,1.02069 1.85208,1.02068 3.30729,1.63838 3.30729,1.63837 1.45521,0.66653 1.45521,0.66654 1.98437,0.8703 1.98438,0.87031 4.23333,1.65568 4.23333,1.65568 0.18858,0.0131 0.18857,0.0131 3.38331,-1.2225 z m 19.91975,-14.98674 3.30729,-1.85438 2.38125,-1.47004 2.38125,-1.47005 3.43959,-2.28537 3.43958,-2.28537 2.38125,-1.81039 2.38125,-1.81039 2.24896,-1.9201 2.24895,-1.9201 0.79375,-0.70025 0.79375,-0.70025 2.64584,-2.57087 2.64583,-2.57088 2.71137,-2.98464 2.71138,-2.98463 1.15505,-1.50205 1.15506,-1.50204 2.16271,-3.16808 2.16271,-3.16808 -0.47289,-0.18676 -0.47289,-0.18676 -0.39687,-0.0169 -0.39688,-0.0169 -0.41563,0.72593 -0.41563,0.72593 -2.66186,3.30729 -2.66186,3.30729 -3.27251,3.31005 -3.27251,3.31005 -3.19317,2.80824 -3.19317,2.80823 -3.11271,2.43871 -3.1127,2.43871 -3.74829,2.44215 -3.74829,2.44215 -2.5387,1.48695 -2.5387,1.48696 -3.54672,1.83996 -3.54671,1.83997 -2.84606,1.2627 -2.84605,1.2627 -0.27168,1.07999 -0.27168,1.07998 -0.52029,1.48238 -0.52028,1.48237 v 0.17304 0.17304 l 3.77031,-1.88753 3.77031,-1.88753 3.30729,-1.85438 z m -36.78425,2.68916 -0.77944,-2.51726 -5.0968,-2.55423 -5.0968,-2.55423 -3.307295,-1.89287 -3.30729,-1.89287 -4.10104,-2.65931 -4.10104,-2.65931 -2.81113,-2.13898 -2.81112,-2.13899 -1.93047,-1.56871 -1.93047,-1.56872 -3.72507,-3.48489 -3.72508,-3.48489 -2.00463,-2.22243 -2.00464,-2.22244 -0.92288,-1.05833 -0.92288,-1.05833 -1.48155,-1.91627 -1.48155,-1.91626 -0.0889,-0.24476 -0.0889,-0.24477 -0.72761,0.14135 -0.7276,0.14135 0.008,0.29989 0.008,0.29988 2.35244,3.29009 2.35244,3.29008 2.0716,2.52433 2.0716,2.52434 2.91042,3.01954 2.91042,3.01955 3.30729,2.91007 3.30729,2.91008 2.88678,2.24711 2.88678,2.24711 3.86009,2.56738 3.8601,2.56739 3.57187,2.13003 3.571885,2.13004 1.32291,0.75831 1.32292,0.7583 4.63021,2.42312 4.63021,2.42311 0.0554,-0.0532 0.0554,-0.0532 -0.77943,-2.51726 z m 21.60407,-22.34088 2.95397,-0.38723 3.02749,-0.7646 3.02748,-0.7646 3.15008,-1.14676 3.15009,-1.14676 3.04439,-1.55171 3.04439,-1.55171 2.6155,-1.73433 2.61549,-1.73434 2.2793,-1.9037 2.27929,-1.90371 1.88533,-1.99304 1.88534,-1.99305 1.10711,-1.4006 1.10711,-1.4006 0.4005,-0.77449 0.4005,-0.77448 -0.15788,-0.15789 -0.15789,-0.15789 -0.437,0.6455 -0.437,0.64549 -2.79806,2.86893 -2.79806,2.86893 -1.98437,1.65826 -1.98438,1.65825 -2.91041,1.99186 -2.91042,1.99185 -3.43958,1.71833 -3.43959,1.71833 -2.91041,1.06506 -2.91042,1.06506 -1.5875,0.41097 -1.5875,0.41097 -2.77812,0.53525 -2.77813,0.53524 -2.51354,0.26396 -2.51354,0.26396 -2.68395,0.005 -2.68394,0.005 -2.74002,-0.27609 -2.74001,-0.27609 -3.26573,-0.66754 -3.26574,-0.66754 -2.4228,-0.75253 -2.42281,-0.75252 -2.44812,-0.9413 -2.44812,-0.94129 -2.446675,-1.22353 -2.44668,-1.22354 -1.58749,-0.95169 -1.5875,-0.95169 -3.04271,-2.24418 -3.04271,-2.24419 -4.06504,-4.06042 -4.06504,-4.06042 0.15615,0.40691 0.15615,0.40693 1.07518,1.58326 1.07518,1.58327 2.41726,2.5285 2.41726,2.5285 1.91439,1.54005 1.91439,1.54005 2.63467,1.7317 2.63466,1.7317 2.93812,1.47352 2.938135,1.47353 2.80402,1.05323 2.80402,1.05324 2.82525,0.79181 2.82525,0.79181 2.91041,0.53607 2.91042,0.53608 2.51354,0.24843 2.51354,0.24844 3.56678,-0.12456 3.56678,-0.12456 z m -89.412075,-11.18226 1.37337,-0.70136 -0.11033,-0.11033 -0.11032,-0.11032 -1.79221,0.59861 -1.79221,0.59862 -1.51338,0.62983 -1.51339,0.62984 -0.60328,-0.008 -0.60329,-0.008 0.52917,-0.41535 0.52917,-0.41536 1.5875,-0.73575 1.5875,-0.73576 2.38125,-0.86209 2.38125,-0.8621 1.35519,-0.59467 1.35519,-0.59468 0.16299,-0.26372 0.16299,-0.26372 -3.4107,1.14189 -3.41069,1.1419 -1.28249,0.57542 -1.28248,0.57542 -0.92604,0.42471 -0.92605,0.42472 -2.14237,1.38975 -2.14238,1.38977 -0.31782,0.38295 -0.31782,0.38295 -0.15663,0.96516 -0.15662,0.96517 4.86578,-2.41665 4.86578,-2.41665 1.37337,-0.70136 z m 173.248465,4.64374 -0.17112,-0.59531 -0.12098,-0.43737 -0.12099,-0.43737 -2.17312,-1.45166 -2.17313,-1.45167 -1.62483,-0.81221 -1.62483,-0.81221 -3.13767,-1.03556 -3.13767,-1.03557 -0.92604,-0.16546 -0.92604,-0.16546 1.19063,0.55688 1.19062,0.55688 1.78036,0.61575 1.78037,0.61575 2.58526,1.11575 2.58526,1.11574 0.38743,0.35712 0.38742,0.35713 h -0.57274 -0.57273 l -2.59282,-0.95551 -2.59281,-0.9555 -1.12448,-0.35476 -1.12448,-0.35476 v 0.10824 0.10825 l 3.63802,1.74985 3.63802,1.74986 2.64584,1.28831 2.64583,1.28832 0.21627,0.0159 0.21627,0.0159 -0.17112,-0.59531 z m -72.537,-2.0305 1.2622,-1.34939 -0.16739,-0.27084 -0.16738,-0.27083 -1.8232,1.92771 -1.8232,1.9277 -0.007,0.21646 -0.007,0.21645 0.7358,-0.52393 0.73579,-0.52393 1.2622,-1.3494 z m -37.4104,0.0461 -1.66436,-1.78594 -0.35035,-0.0856 -0.35035,-0.0855 0.0184,0.35013 0.0184,0.35012 1.76755,1.51015 1.76756,1.51013 0.22877,0.0112 0.22878,0.0112 -1.66437,-1.78594 z m -3.97258,7.9e-4 -0.64144,-0.72675 -0.22424,-0.0977 -0.22424,-0.0976 -3.744515,-2.50488 -3.7445,-2.50488 -0.39688,-0.42655 -0.39687,-0.42654 0.39687,0.28895 0.39688,0.28895 2.74382,1.49474 2.743835,1.49475 0.10959,-0.10959 0.10959,-0.10959 -2.853425,-2.10217 -2.85341,-2.10218 -2.24896,-1.58716 -2.24896,-1.58716 -1.30213,-0.84353 -1.30214,-0.84353 h 0.15572 0.15572 l 1.27051,0.5446 1.27051,0.54461 4.10923,2.41197 4.10924,2.41198 0.52917,0.41272 0.529175,0.41272 -0.793755,-0.90685 -0.79375,-0.90685 -2.37593,-2.52859 -2.37593,-2.5286 -1.59282,-1.5968 -1.59282,-1.5968 -3.43958,-1.55233 -3.43959,-1.55233 -1.1681,-0.35708 -1.1681,-0.35707 -0.10616,0.10616 -0.10617,0.10617 0.58982,0.54949 0.58981,0.54949 0.94903,0.29982 0.94904,0.29981 2.68618,1.28721 2.68618,1.28722 1.41486,1.33943 1.41486,1.33944 -2.51354,-1.24406 -2.51354,-1.24407 -2.69655,-1.2149 -2.69655,-1.21491 -1.62213,-1.54444 -1.62213,-1.54445 -0.10306,0.10306 -0.10305,0.10305 0.99255,1.49464 0.99256,1.49465 2.3602,2.68985 2.3602,2.68985 2.3919,2.15655 2.39189,2.15655 1.5875,1.20514 1.5875,1.20515 2.00991,1.24126 2.00991,1.24127 3.414055,1.70208 3.41405,1.70209 0.11226,0.0156 0.11227,0.0156 -0.64143,-0.72674 z m 45.2714,-0.26664 1.71216,-0.72881 2.80102,-1.48952 2.80103,-1.48952 1.43231,-1.00939 1.43231,-1.00939 2.55774,-2.20478 2.55773,-2.20477 2.22545,-2.33856 2.22545,-2.33857 1.63296,-2.1671 1.63296,-2.1671 v -0.2483 -0.2483 h -0.15784 -0.15783 l -1.14391,1.0069 -1.1439,1.00691 -4.86108,2.41797 -4.86109,2.41798 -1.01731,0.80845 -1.0173,0.80845 h -0.12961 -0.12961 l 1.14363,-1.25677 1.14363,-1.25677 1.20517,-0.89222 1.20518,-0.89223 4.10104,-1.98466 4.10104,-1.98467 -0.34854,-0.12766 -0.34854,-0.12765 -2.03271,0.71669 -2.03271,0.7167 -2.38125,1.2196 -2.38125,1.21961 -1.8747,1.86199 -1.8747,1.862 -1.42206,1.71979 -1.42206,1.7198 -1.20115,1.2723 -1.20116,1.27231 0.79375,-0.29775 0.79375,-0.29774 0.52916,-0.47574 0.52917,-0.47574 1.27961,-0.76341 1.27961,-0.7634 1.23393,-0.735 1.23393,-0.73499 1.45521,-0.67745 1.45521,-0.67745 0.65589,-0.25768 0.6559,-0.25769 -0.19282,0.19281 -0.19281,0.19281 -3.2995,2.27107 -3.29949,2.27107 -3.19993,2.20984 -3.19992,2.20984 0.13551,0.13551 0.1355,0.13551 2.79198,-1.47772 2.79198,-1.47771 v 0.12138 0.12137 l -2.71198,1.7711 -2.71198,1.7711 -1.5875,1.1853 -1.5875,1.18531 -0.25135,0.22177 -0.25136,0.22177 h 0.1267 0.12669 z m 7.4007,-5.99939 v -0.13229 l 0.52917,-0.2832 0.52917,-0.28321 v 0.1323 0.13229 l -0.52917,0.2832 -0.52917,0.2832 z m -14.14759,5.12844 0.15591,-0.25227 h -0.2307 -0.2307 l -0.7771,0.83886 -0.77711,0.83886 0.8519,-0.58659 0.85189,-0.5866 z m -32.11765,0.004 -0.62463,-0.52037 h -0.26458 -0.26458 l 0.62462,0.52037 0.62462,0.52036 h 0.26459 0.26458 z m -73.436935,-2.33339 2.88864,-1.54843 2.24896,-0.8165 2.24895,-0.81649 2.24896,-0.70906 2.24896,-0.70905 0.25135,-0.23331 0.25136,-0.2333 h -0.38539 -0.3854 l -0.92429,0.27457 -0.9243,0.27458 -2.99666,0.79823 -2.99665,0.79822 -2.16272,0.91555 -2.16272,0.91555 -1.19062,0.59134 -1.19063,0.59133 -0.0837,0.72761 -0.0837,0.7276 h 0.1055 0.1055 z m 74.855305,-0.0578 2.38125,-1.04116 1.68844,-1.01664 1.68845,-1.01664 2.11628,0.61526 2.11629,0.61527 2.24972,0.29938 2.24972,0.29938 3.02447,-0.18898 3.02447,-0.18897 -0.0941,-0.0941 -0.0941,-0.0941 -3.56089,-0.2859 -3.5609,-0.2859 -2.64584,-0.53666 -2.64583,-0.53666 -1.07631,-0.47525 -1.07632,-0.47524 -4.61222,2.63576 -4.61223,2.63577 -0.26459,0.27262 -0.26458,0.27263 0.79375,-0.18439 0.79375,-0.1844 z m 32.41146,1.22208 v -0.11955 l -2.57969,-1.60564 -2.57969,-1.60565 -1.92355,-1.35557 -1.92354,-1.35557 -0.57141,0.25497 -0.57141,0.25497 2.36266,1.54869 2.36267,1.5487 2.38125,1.27202 2.38125,1.27203 0.33073,0.005 0.33073,0.005 v -0.11955 z m 73.4113,-0.47576 -0.17851,-0.59531 -0.30234,-0.31644 -0.30233,-0.31645 -3.2195,-1.30793 -3.2195,-1.30793 -3.39508,-0.79905 -3.39509,-0.79905 -1.02497,-0.14495 -1.02497,-0.14495 0.11281,0.11281 0.11281,0.11281 3.23585,0.94036 3.23586,0.94036 1.90964,0.76305 1.90964,0.76304 2.51354,1.3317 2.51354,1.3317 0.34856,0.0158 0.34856,0.0158 -0.17852,-0.59531 z M 98.9543,170.83979 v -0.10038 l -2.31511,-1.86062 -2.3151,-1.86061 -1.71979,-1.62369 -1.719805,-1.62369 0.66146,0.17568 0.66146,0.17569 -1.12448,-0.82599 -1.12448,-0.82599 v -0.14625 -0.14624 l 0.33073,0.20007 0.33073,0.20007 1.13565,0.71581 1.135645,0.71582 -0.2096,0.1147 -0.20961,0.11469 0.33242,-0.0813 0.33241,-0.0813 3.92197,1.56348 3.92197,1.56349 0.73398,0.18421 0.73398,0.18422 -0.81636,-1.12695 -0.81637,-1.12695 0.16836,-0.27241 0.16837,-0.27241 -0.27653,0.1709 -0.27652,0.1709 -0.47636,-0.72534 -0.47636,-0.72533 0.0345,-0.46874 0.0345,-0.46874 -0.29025,0.17939 -0.29025,0.17938 0.1493,-0.5709 0.14929,-0.57091 -0.23991,0.14827 -0.23991,0.14827 v -0.41249 -0.41249 h 0.35278 0.35278 v -0.38523 -0.38524 l -0.26545,0.16406 -0.26545,0.16405 0.1657,-0.4318 0.1657,-0.43181 -0.25303,-0.15638 -0.25303,-0.15637 v -0.64585 -0.64584 h 0.26459 0.26458 v 0.26159 0.26158 l 1.63416,2.29938 1.63416,2.29937 1.5823,1.87081 1.5823,1.87081 0.32591,0.35792 0.32592,0.35792 0.54063,-0.17159 0.54062,-0.17158 -0.0208,-0.73281 -0.0208,-0.7328 -0.65162,-0.77645 -0.65162,-0.77644 0.20158,0.39687 0.20157,0.39688 0.3991,0.46464 0.39911,0.46464 -0.14311,0.14311 -0.1431,0.1431 -0.91248,-1.2692 -0.91249,-1.26921 -0.62492,-1.03903 -0.62491,-1.03903 0.38126,0.19875 0.38126,0.19876 -0.51359,-0.4165 -0.51359,-0.41649 0.249,-0.004 0.24901,-0.004 -0.28237,-0.19438 -0.28237,-0.19439 -1.81516,-3.04271 -1.81517,-3.04271 -0.53573,-1.00059 -0.53572,-1.00059 -0.54174,-0.12219 -0.54174,-0.12218 -3.171,-0.67202 -3.171005,-0.67202 -1.51685,-0.39305 -1.51684,-0.39306 -0.40539,-0.15556 -0.40538,-0.15556 -2.2e-4,1.41737 -2.1e-4,1.41737 -0.39929,1.98438 -0.39929,1.98437 -0.42643,1.80098 -0.42643,1.80098 2.34729,2.38127 2.34729,2.38127 1.930845,1.47307 1.93084,1.47307 2.03151,1.1577 2.0315,1.1577 h 0.0725 0.0726 v -0.10038 z m 43.39411,-2.15784 1.45765,-1.11426 1.71735,-1.82782 1.71734,-1.82783 1.56084,-1.78577 1.56084,-1.78577 -0.4788,-2.96839 -0.47879,-2.96839 -0.0237,-1.91631 -0.0237,-1.91632 -0.15895,-0.002 -0.15896,-0.002 -0.76708,0.24448 -0.76709,0.24447 -4.6747,1.10646 -4.6747,1.10646 -0.14687,0.56729 -0.14686,0.5673 -2.14403,3.57187 -2.14403,3.57188 -2.07715,2.82644 -2.07715,2.82644 0.61853,0.40528 0.61853,0.40527 0.70025,-0.55082 0.70026,-0.55082 2.66108,-3.47465 2.66108,-3.47464 1.17603,-2.0377 1.17604,-2.03769 0.44726,-0.12088 0.44726,-0.12088 3.23772,-0.86551 3.23773,-0.86551 0.13601,0.13601 0.13601,0.13601 0.30529,2.79603 0.3053,2.79603 -2.20726,3.00246 -2.20727,3.00246 -1.60406,1.85109 -1.60405,1.85109 -0.46302,0.34672 -0.46302,0.34673 v 0.28001 0.28001 l 0.7276,-0.47012 0.72761,-0.47012 1.45765,-1.11426 z m -115.215265,1.50772 0.25136,-0.22133 1.45521,-0.60718 1.4552,-0.60718 1.90726,-0.89187 1.90726,-0.89187 2.32608,-0.81221 2.32607,-0.81222 1.98438,-0.65248 1.98437,-0.65249 3.70417,-0.92014 3.70416,-0.92013 2.24896,-0.25589 2.24896,-0.25588 3.96875,-0.54549 3.96875,-0.5455 3.24115,-0.16069 3.24114,-0.1607 v -0.11738 -0.11739 l -0.55311,-0.77676 -0.5531,-0.77677 -0.86882,-1.64533 -0.86881,-1.64532 -0.53046,-1.05834 -0.53047,-1.05833 -0.68867,-1.45521 -0.68868,-1.45521 -0.37664,-1.19062 -0.37664,-1.19063 -0.53961,-1.45521 -0.53961,-1.4552 -1.8005,0.062 -1.8005,0.062 -4.10105,0.67944 -4.10104,0.67944 -1.5875,0.37421 -1.5875,0.3742 -3.57187,0.82076 -3.57188,0.82075 -4.23333,1.19025 -4.23333,1.19025 -4.7625,1.5962 -4.7625,1.59619 -0.18216,0.17197 -0.18215,0.17196 1.4679,3.04271 1.4679,3.04271 0.53021,1.32291 0.53021,1.32292 0.37207,1.71979 0.37208,1.71979 0.10953,1.71979 0.10954,1.7198 0.0175,0.0661 0.0175,0.0662 h 0.21166 0.21167 l 0.25135,-0.22134 z m 182.681565,-0.56734 v -0.78868 l -1.25677,-0.67426 -1.25677,-0.67425 0.66145,0.16975 0.66146,0.16976 0.25136,0.23484 0.25135,0.23485 h 0.47625 0.47625 v -0.96149 -0.96149 l 0.282,-1.08903 0.28199,-1.08903 0.41995,-1.32292 0.41995,-1.32291 1.55422,-3.29615 1.55421,-3.29614 -0.12322,-0.32111 -0.12322,-0.3211 -4.97721,-1.58712 -4.97721,-1.58713 -3.04271,-0.93453 -3.04271,-0.93454 -4.89479,-1.19076 -4.89479,-1.19076 -4.49792,-0.79326 -4.49791,-0.79326 -2.47436,-0.30355 -2.47435,-0.30355 -0.20751,0.22439 -0.2075,0.2244 -0.40647,1.32292 -0.40647,1.32291 -0.43502,1.19063 -0.43502,1.19062 -1.54618,3.175 -1.54618,3.175 -0.001,0.23501 -0.001,0.235 -0.23482,0.16187 -0.23482,0.16187 -0.45631,0.98095 -0.45632,0.98095 -0.2575,0.15915 -0.25751,0.15914 v 0.38126 0.38126 l 1.52136,-0.003 1.52135,-0.003 4.10104,0.40551 4.10105,0.40551 3.0427,0.40127 3.04271,0.40127 1.5875,0.28783 1.5875,0.28783 1.98438,0.50974 1.98437,0.50974 2.64583,0.80011 2.64584,0.80011 2.77812,0.9284 2.77813,0.9284 3.30729,1.65035 3.30729,1.65035 0.19844,0.0466 0.19835,0.0466 z m -4.23334,-2.65091 -0.39687,-0.25648 h 0.26458 0.26459 l 0.39687,0.25648 0.39688,0.25648 h -0.26459 -0.26458 z m -1.32291,-0.52916 -0.39688,-0.25648 0.44741,-0.004 0.44741,-0.004 0.16352,0.26459 0.16352,0.26458 -0.21405,-0.004 -0.21406,-0.004 z m -164.978585,1.1656 2.37037,-0.76567 -0.4755,-0.0916 -0.47551,-0.0916 -2.22559,0.69391 -2.2256,0.6939 v 0.28435 0.28434 l 0.33073,-0.12101 0.33073,-0.121 z m 83.296885,0.17208 2.01128,-0.5144 0.7967,-0.41198 0.79669,-0.41199 0.83173,-1.20888 0.83172,-1.20887 -0.13687,-0.13688 -0.13689,-0.13688 -2.00498,0.69202 -2.00498,0.69203 -2.18312,0.27462 -2.18312,0.27462 -1.5875,-0.16431 -1.5875,-0.1643 -1.45479,-0.28239 -1.45478,-0.2824 -1.32334,-0.5874 -1.32334,-0.5874 -0.87662,-0.74071 -0.87663,-0.74071 -1.59852,-2.09991 -1.59853,-2.09991 1.10009,0.69446 1.10009,0.69445 2.56569,0.6513 2.56568,0.6513 3.0298,0.28239 3.02979,0.28238 1.60042,-0.16659 1.60041,-0.16659 2.11666,-0.28469 2.11667,-0.28469 1.39114,-0.51435 1.39114,-0.51435 1.16764,-0.6526 1.16764,-0.65261 0.8808,-1.00591 0.88081,-1.00592 0.45213,-0.56096 0.45214,-0.56096 0.80215,-1.39875 0.80215,-1.39875 0.002,0.3214 0.002,0.32141 -1.62462,2.7213 -1.62463,2.7213 -1.74881,2.50704 -1.74881,2.50704 -0.57997,0.99869 -0.57997,0.99869 h 0.22093 0.22094 l 0.1276,-0.33253 0.1276,-0.33252 1.79983,-2.37946 1.79983,-2.37945 1.94632,-2.97781 1.94633,-2.97782 0.22962,-0.59406 0.22962,-0.59406 -1.92899,-3.70416 -1.92898,-3.70417 -1.19997,-2.24896 -1.19996,-2.24896 -1.01815,-1.85208 -1.01815,-1.85208 -9.67504,-0.0694 -9.67505,-0.0694 -3.94511,7.81464 -3.94511,7.81463 0.62957,1.09793 0.62958,1.09793 2.76147,3.98909 2.76147,3.98909 1.30982,1.85208 1.30983,1.85209 1.06446,0.47767 1.06447,0.47767 1.90758,0.49995 1.90758,0.49994 2.14049,0.0146 2.14049,0.0146 2.01128,-0.5144 z m 77.83201,0.26444 -0.25135,-0.24996 -2.49765,-0.55561 -2.49765,-0.5556 -0.53493,0.078 -0.53494,0.078 2.768,0.70751 2.768,0.7075 0.51594,0.0201 0.51593,0.0201 -0.25135,-0.24996 z m -62.16385,-3.01126 2.11667,-2.20586 1.04447,-1.98682 1.04448,-1.98683 1.55408,-0.32099 1.55408,-0.32099 0.64259,-0.29278 0.64259,-0.29278 -0.0186,-0.42055 -0.0186,-0.42055 -0.22739,-0.52917 -0.22739,-0.52917 -0.0186,0.30732 -0.0186,0.30732 -0.33073,-0.0502 -0.33073,-0.0502 -0.26459,-0.1342 -0.26458,-0.13421 -1.19062,0.16805 -1.19063,0.16805 0.39688,0.0438 0.39687,0.0438 -0.39686,0.25647 -0.39687,0.25648 -0.59311,0.004 -0.5931,0.004 -1.47829,2.94764 -1.4783,2.94763 -0.69988,1.08726 -0.69989,1.08726 -0.89861,1.12448 -0.89861,1.12448 0.3626,0.002 0.3626,0.002 2.11667,-2.20586 z m 5.75972,-8.5638 0.46806,-0.12197 0.32569,0.13177 0.3257,0.13178 -0.79375,-0.01 -0.79375,-0.01 0.46805,-0.12197 z m -124.712525,7.64274 2.49095,-0.94806 -0.31009,-0.10336 -0.3101,-0.10337 -3.106889,1.00073 -3.1069,1.00073 -0.26458,0.23983 -0.26458,0.23983 1.19062,-0.18914 1.19063,-0.18913 z m 202.375115,1.12994 -0.14193,-0.14193 -3.47522,-1.0487 -3.47522,-1.0487 -0.32955,0.0141 -0.32956,0.0141 3.04271,1.16244 3.04271,1.16244 0.90399,0.0141 0.90399,0.0141 -0.14192,-0.14193 z m 8.12464,-0.68579 -0.14363,-0.37429 -0.48654,-0.30385 -0.48653,-0.30385 -4.86617,-1.84563 -4.86617,-1.84563 -1.55614,-0.56611 -1.55615,-0.56612 -0.0937,0.0937 -0.0937,0.0937 5.2217,2.29189 5.2217,2.29189 1.85209,0.76199 1.85208,0.76199 0.0724,-0.0577 0.0724,-0.0577 z m -218.920114,-1.23487 3.019,-1.29903 3.23904,-1.54039 3.239049,-1.5404 -0.10964,-0.10963 -0.10964,-0.10964 -4.320029,1.71112 -4.32003,1.71112 -2.2881104,0.88466 -2.28811,0.88465 -0.31774,0.50878 -0.31774,0.50879 0.77748,-0.1555 0.77748,-0.15549 z m 94.582284,0.004 -0.74824,-0.71959 0.61118,0.85665 0.61119,0.85664 0.13705,-0.13706 0.13706,-0.13705 z m -94.341414,-2.18729 3.04271,-1.37535 2.73003,-1.086 2.730029,-1.086 -0.25665,-0.0855 -0.25666,-0.0856 -2.605669,0.81708 -2.60566,0.81709 -2.44191,0.95533 -2.4419104,0.95532 -0.79924,0.48605 -0.79923,0.48604 v 0.42907 0.42908 l 0.33073,-0.14064 0.33073,-0.14063 z m 217.752084,1.11188 v -0.22357 l -0.46302,-0.40753 -0.46302,-0.40752 -1.55827,-0.70511 -1.55827,-0.70512 -3.97882,-1.30673 -3.97882,-1.30673 -0.122,0.122 -0.12201,0.122 0.63201,0.24029 0.63201,0.24029 2.99434,1.23408 2.99435,1.23409 2.16503,1.02377 2.16503,1.02378 0.33073,0.0228 0.33073,0.0228 v -0.22357 z m -217.089034,-3.68941 2.11825,-1.05304 1.05675,-0.43951 1.05675,-0.43951 0.99218,-0.43568 0.99219,-0.43569 v -0.19234 -0.19234 l -0.8978,0.2479 -0.89779,0.24789 -3.1371,1.18745 -3.1371004,1.18745 -0.66146,0.4896 -0.66146,0.4896 -0.0857,0.43587 -0.0857,0.43587 0.61488,-0.24024 0.61489,-0.24024 z m 215.766114,1.01288 v -0.25428 l -0.5635,-0.52498 -0.5635,-0.52498 -2.67764,-1.04818 -2.67765,-1.04818 -1.54097,-0.446 -1.54098,-0.446 -0.1304,0.1304 -0.1304,0.1304 0.90169,0.29758 0.90168,0.29759 3.94469,1.83158 3.94469,1.83158 0.0661,0.0139 0.0661,0.0139 v -0.25428 z m -96.06499,-0.80406 0.31502,-0.66146 -0.41147,0.51359 -0.41147,0.51359 v 0.25812 0.2581 l 0.0965,-0.11024 0.0965,-0.11024 z m 20.2547,-2.426 -0.44945,-1.93962 -0.2521,-1.0189 -0.2521,-1.01889 -0.0961,0.0961 -0.0961,0.0961 0.3603,1.89094 0.3603,1.89094 0.32479,1.08404 0.32478,1.08404 0.11261,-0.1126 0.1126,-0.1126 z m -68.952405,-1.81155 0.52922,-2.77391 0.10425,-0.85989 0.10425,-0.8599 h -0.17544 -0.17544 l -0.47184,1.91823 -0.47185,1.91823 -0.13483,1.85208 -0.13483,1.85209 0.14865,-0.13651 0.14864,-0.13651 z m 2.23123,1.32713 0.15063,-1.4552 -0.22071,0.66145 -0.2207,0.66146 -0.0264,0.904 -0.0264,0.90399 0.0965,-0.11024 0.0964,-0.11025 0.15063,-1.45521 z m 69.475345,-3.24514 -0.59122,-4.37838 -0.47206,0.88076 -0.47206,0.88076 0.23016,1.40965 0.23016,1.40965 0.55307,2.21916 0.55307,2.21916 v 0.14886 0.14886 l 0.28005,-0.28005 0.28005,-0.28005 z m -142.903414,3.68637 1.77933,-0.88169 1.78594,-0.7455 1.78594,-0.7455 v -0.2249 -0.22489 l -0.19844,8e-5 -0.19844,8e-5 -2.62727,0.93912 -2.62727,0.93911 -0.72731,0.42963 -0.7273204,0.42964 -0.12637,0.48325 -0.12638,0.48326 h 0.11413 0.11413 z m 214.656674,0.12541 -0.26315,-0.4917 -0.6169,-0.4042 -0.61689,-0.40421 -2.60413,-0.83417 -2.60413,-0.83418 -0.25334,0.0844 -0.25335,0.0845 2.07456,0.86787 2.07457,0.86788 1.4552,0.76527 1.45521,0.76528 0.20775,0.0125 0.20775,0.0125 -0.26315,-0.4917 z m -212.612754,-3.47644 2.38125,-1.18804 -0.597,-0.0864 -0.59701,-0.0864 -1.51248,0.69244 -1.51249,0.69244 -0.4702,0.42552 -0.4702,0.42552 v 0.24563 0.24562 l 0.19844,-0.0892 0.19844,-0.0892 z m 211.293534,0.57294 -0.25945,-0.48478 -0.34517,-0.26249 -0.34517,-0.2625 -1.64966,-0.44335 -1.64965,-0.44335 -0.46701,0.003 -0.46702,0.003 2.09535,0.91472 2.09536,0.91473 0.27266,0.27267 0.27267,0.27267 h 0.35327 0.35327 z m -156.950045,-2.44858 -0.82393,-2.22601 -1.01761,-3.05989 -1.01761,-3.05989 -0.6655,-3.29011 -0.6655,-3.29011 -0.25322,-3.35382 -0.25321,-3.35382 0.23695,-3.34358 0.23695,-3.34359 0.16753,-0.97551 0.16754,-0.97552 0.74716,-3.0427 0.74716,-3.04271 0.91647,-2.51355 0.91647,-2.51355 1.06245,-2.38124 1.06244,-2.38125 1.07072,-1.93071 1.07071,-1.9307 1.50911,-2.170344 1.50911,-2.17034 1.77814,-2.127479 1.77814,-2.12749 2.7453,-2.68043 2.74532,-2.68042 1.4552,-1.15639 1.45521,-1.156378 1.85208,-1.329082 1.85209,-1.329081 2.248965,-1.456904 2.24896,-1.456907 2.24895,-1.203788 2.24896,-1.203785 2.24896,-0.822767 2.24896,-0.822764 1.71979,-0.531866 1.71979,-0.531868 -1.1533,0.137792 -1.15329,0.137793 -2.87037,0.927928 -2.87037,0.927928 -3.25238,1.334267 -3.25237,1.33427 -2.314655,1.321567 -2.31465,1.321568 -2.05098,1.465185 -2.05097,1.465186 -2.11551,1.888626 -2.1155,1.88863 -1.24797,1.28767 -1.24796,1.28768 -1.35939,1.54447 -1.35938,1.54448 -1.15716,1.4902 -1.15717,1.490199 -1.70041,2.70873 -1.70041,2.708744 -1.11853,2.22465 -1.11853,2.22465 -1.13955,2.94843 -1.13953,2.94842 -0.66586,2.48022 -0.66586,2.48021 -0.54927,2.89539 -0.54926,2.89538 -0.15936,3.58691 -0.15936,3.58691 0.31477,2.91041 0.31477,2.91042 0.53882,2.49855 0.53881,2.49855 0.78298,2.26395 0.78298,2.26395 1.87631,3.77546 1.87631,3.77545 0.0942,-0.0942 0.0942,-0.0942 z m 101.702885,-1.56456 1.04817,-2.24895 0.90208,-2.32639 0.90207,-2.32638 0.63471,-2.7007 0.6347,-2.7007 0.31835,-3.30729 0.31835,-3.30729 -0.16297,-3.45288 -0.16297,-3.45287 -0.53903,-3.16171 -0.53904,-3.16171 -0.65334,-2.4605 -0.65334,-2.46051 -1.16409,-2.97715 -1.16408,-2.97714 -1.12111,-2.22976 -1.12109,-2.22975 -1.57582,-2.501294 -1.57583,-2.50128 -1.13565,-1.472979 -1.13564,-1.47298 -2.17824,-2.4625 -2.17824,-2.4625 -2.28675,-1.99985 -2.28675,-1.99985 -2.38125,-1.787679 -2.38125,-1.787673 -2.33872,-1.338723 -2.33872,-1.338725 -2.78668,-1.220414 -2.78668,-1.220415 -3.47355,-1.146958 -3.47356,-1.146961 -1.1807,-0.176302 -1.18069,-0.176303 0.12236,0.120836 0.12236,0.120835 1.71979,0.442928 1.71979,0.442926 2.51354,0.933953 2.51355,0.933955 2.35896,1.176782 2.35896,1.176782 2.73901,1.864418 2.73901,1.864418 2.47116,1.889345 2.47116,1.889345 2.18571,1.98437 2.1857,1.98438 2.05069,2.38125 2.05069,2.38125 0.90814,1.190619 0.90814,1.19063 1.34345,1.99123 1.34345,1.991234 1.51635,3.02351 1.51634,3.0235 0.90579,2.37356 0.90578,2.37357 0.63486,2.269 0.63485,2.26899 0.61298,3.04271 0.61298,3.0427 -0.0109,6.61459 -0.0109,6.61458 -0.60117,2.77813 -0.60116,2.77812 -1.32305,4.04014 -1.32304,4.04014 -0.64458,1.45751 -0.64458,1.45751 0.001,0.32318 0.001,0.32319 0.57051,-0.92605 0.57052,-0.92604 1.04816,-2.24896 z m -156.581654,1.32968 0.47277,-0.52242 0.49427,-0.15687 0.49428,-0.15688 v -0.24675 -0.24676 h -0.65115 -0.65115 l -0.53948,0.57906 -0.53947,0.57906 v 0.34698 0.34699 h 0.22357 0.22358 z m 124.921924,-0.70843 -0.37003,-1.04879 -2.30034,-4.48258 -2.30034,-4.48258 0.42408,0.52109 0.42408,0.5211 2.30489,4.30755 2.3049,4.30755 0.53389,-0.005 0.53389,-0.005 2.38125,-0.62823 2.38125,-0.62823 1.49961,-0.52977 1.49963,-0.52977 1.26816,-0.87252 1.26817,-0.87252 1.0337,-0.93389 1.03371,-0.93389 1.51731,-1.85927 1.51731,-1.85928 1.22225,-1.90941 1.22225,-1.90942 1.03372,-2.05933 1.03372,-2.05934 0.95092,-2.30101 0.95093,-2.30101 -1.41226,-3.7844 -1.41226,-3.78441 -1.50053,-3.1208 -1.50052,-3.12081 -0.39411,-0.15123 -0.3941,-0.15123 -3.7636,0.43391 -3.7636,0.43393 -3.83646,0.55786 -3.83645,0.55787 -0.57878,0.21689 -0.57878,0.2169 -0.82802,2.59252 -0.82802,2.59252 -1.30563,3.30729 -1.30563,3.30729 -2.07703,4.23334 -2.07702,4.23333 1.27907,2.51354 1.27907,2.51354 1.02463,1.85209 1.02463,1.85208 1.32986,2.38125 1.32986,2.38125 0.48947,0.84281 0.48946,0.84282 0.0739,-0.0739 0.0739,-0.0739 -0.37004,-1.04879 z m 6.84655,-4.69842 0.79362,-0.63496 0.23945,0.14799 0.23945,0.14799 -0.15682,-0.25374 -0.15682,-0.25373 1.56929,-1.96996 1.56929,-1.96996 0.002,-0.22674 0.002,-0.22675 0.3834,0.14713 0.3834,0.14712 -0.12785,-0.33317 -0.12785,-0.33317 0.68576,-1.01052 0.68577,-1.01053 1.69001,-3.37259 1.69001,-3.3726 0.72818,-2.21554 0.7282,-2.21555 0.0997,0.46405 0.0997,0.46406 -0.38668,1.31908 -0.38668,1.31908 0.23479,-0.1451 0.23478,-0.14511 v -0.38126 -0.38126 h 0.19844 0.19844 v 1.16812 1.16813 l -0.26458,-0.21883 -0.26459,-0.21882 -0.0342,1.42785 -0.0343,1.42785 0.23701,-0.14647 0.237,-0.14648 -0.15194,-0.24583 -0.15193,-0.24584 0.44076,-0.59578 0.44075,-0.59578 -0.17521,0.79375 -0.17521,0.79375 -0.78311,1.69132 -0.78312,1.69132 -0.94313,1.55257 -0.94314,1.55258 -0.24073,-0.14878 -0.24073,-0.14878 0.14745,0.38423 0.14744,0.38423 -1.60001,1.68003 -1.6,1.68003 -0.28129,-0.39687 -0.2813,-0.39688 0.0772,0.52917 0.0772,0.52917 -0.45264,-0.035 -0.45265,-0.035 0.0558,0.28309 0.0558,0.28309 -1.71979,0.72394 -1.71979,0.72394 -0.26459,0.0189 -0.26458,0.0189 0.79362,-0.63496 z m 5.55638,-3.33116 -0.16352,-0.26458 -0.31511,0.004 -0.31512,0.004 0.39688,0.25648 0.39687,0.25648 0.0818,0.004 0.0818,0.004 z m 1.42945,-1.96604 -0.12656,-0.12656 -0.35028,0.58328 -0.35029,0.58328 0.47684,-0.45672 0.47684,-0.45672 z m -0.93162,0.23251 0.15757,-0.41062 -0.26155,0.16165 -0.26156,0.16165 v 0.24897 0.24897 h 0.10399 0.10398 z m -0.43271,-0.98631 0.0388,-0.51497 -0.0607,0.096 -0.0607,0.096 -0.31781,0.41893 -0.31781,0.41892 h 0.3397 0.33969 z m 2.27514,-0.86344 -0.15667,-0.40829 -0.1261,0.1261 -0.1261,0.1261 0.1744,0.28219 0.1744,0.28218 h 0.10837 0.10838 z m 0.25204,-3.47227 -0.13537,-0.35278 h -0.0757 -0.0757 l -0.13538,0.35278 -0.13537,0.35278 h 0.34642 0.34643 z m 1.45764,-1.02124 -0.14811,-0.14811 -0.18065,0.47443 -0.18065,0.47443 0.32876,-0.32632 0.32877,-0.32632 z m -0.47806,-1.00723 v -0.52917 l -0.0749,0.11024 -0.0749,0.11024 -0.31781,0.41893 -0.3178,0.41892 h 0.39267 0.39268 z m 1.00968,-1.10356 -0.30189,-0.66257 -0.11075,0.11075 -0.11075,0.11075 0.29533,0.55182 0.29533,0.55183 h 0.11731 0.11731 z m -10.71846,10.22055 2.29384,-2.74517 0.70297,-1.11115 0.70297,-1.11115 0.53845,-0.24473 0.53844,-0.24473 1.28948,-2.51354 1.28948,-2.51354 -0.18085,0.66146 -0.18084,0.66146 -0.79349,1.5875 -0.79348,1.5875 -1.54553,2.24896 -1.54553,2.24895 -1.2645,1.35022 -1.26451,1.35021 -1.04037,0.76646 -1.04037,0.76645 z m -11.55749,-2.55674 -0.16498,-0.42992 0.008,-0.1768 0.008,-0.1768 0.28079,0.48286 0.2808,0.48287 -0.12386,0.12386 -0.12386,0.12386 -0.16498,-0.42993 z m 23.96368,-9.25019 0.01,-0.79375 0.12197,0.46806 0.12197,0.46806 -0.13178,0.32569 -0.13177,0.32569 0.01,-0.79375 z m -0.55986,-0.022 0.0209,-0.50711 0.13896,0.34726 0.13897,0.34727 -0.15985,0.15985 -0.15986,0.15985 0.0209,-0.50712 z m -53.38686,14.57413 3.04872,-5.82084 0.72436,-1.53974 0.72435,-1.53975 -1.47677,-3.09046 -1.47676,-3.09046 -0.83859,-1.85209 -0.83858,-1.85208 -0.79881,-2.11667 -0.79882,-2.11666 -0.76198,-2.34754 -0.76198,-2.34754 v -0.32343 -0.32343 l -0.46729,-0.4229 -0.46729,-0.4229 -1.18783,-0.2662 -1.18784,-0.26619 -6.198715,-0.80712 -6.19873,-0.80714 h -0.6318 -0.63181 l -2.86954,5.88781 -2.86954,5.8878 -0.53693,1.36218 -0.53692,1.36219 0.28008,1.01824 0.28007,1.01825 0.50505,0.99244 0.50504,0.99244 1.2549,1.91797 1.25489,1.91798 2.37755,3.175 2.37755,3.175 2.07201,2.05753 2.07201,2.05752 1.51486,0.7647 1.51486,0.7647 3.027795,0.92428 3.02778,0.92428 0.39742,0.15924 0.39742,0.15923 0.31558,-0.50533 0.31558,-0.50532 1.76395,-3.40041 1.76394,-3.40042 0.78362,-1.38906 0.78362,-1.38906 h 0.12849 0.12849 l -0.11879,0.19844 -0.11878,0.19843 -1.51503,3.175 -1.51504,3.175 -1.02763,2.32698 -1.02763,2.32697 v 0.17334 0.17334 l 0.23536,-0.25136 0.23536,-0.25135 z m -13.838195,-0.75744 -1.19062,-0.87661 -0.95458,-1.06034 -0.95457,-1.06033 -1.05974,-1.56222 -1.05973,-1.56223 -0.84487,-1.67564 -0.84487,-1.67563 -0.26632,-0.70561 -0.26632,-0.70562 0.26853,0.26512 0.26854,0.26512 0.88679,1.71925 0.88679,1.71926 0.36132,-0.0811 0.36131,-0.0811 -0.33917,0.40867 -0.33917,0.40868 0.414,0.15886 0.41401,0.15887 0.26024,-0.16084 0.26025,-0.16084 1.22678,1.71918 1.22678,1.71918 -0.17111,0.27686 -0.1711,0.27685 0.35039,-0.0727 0.3504,-0.0727 -0.0661,0.33073 -0.0662,0.33072 0.3187,-0.0661 0.3187,-0.0661 0.024,0.39688 0.0241,0.39687 0.31871,-0.0661 0.31871,-0.0661 v 0.2366 0.23661 l 0.76761,0.82173 0.76761,0.82173 -0.30459,-0.007 -0.30459,-0.007 -1.19063,-0.87661 z m -2.87758,-4.47249 -0.32877,-0.32632 0.18065,0.47443 0.18066,0.47443 0.14811,-0.14811 0.14811,-0.14811 z m -0.42971,-0.45861 0.16352,-0.26459 h -0.26458 -0.26459 l -0.16352,0.26459 -0.16352,0.26458 h 0.26459 0.26458 z m 19.067015,-0.34215 0.18065,-0.47443 0.14811,0.14812 0.14812,0.14811 -0.32877,0.32632 -0.32876,0.32632 z m 0.37986,-0.96516 v -0.24897 l 0.26156,-0.16164 0.26155,-0.16165 -0.15757,0.41061 -0.15757,0.41062 h -0.10398 -0.10399 z m 119.05845,13.01512 -0.004,-0.19844 -0.19439,-0.29112 -0.19438,-0.29112 -0.57792,-0.30419 -0.57792,-0.3042 h -0.5859 -0.58589 l 1.03152,0.77564 1.03152,0.77563 0.33073,0.0181 0.33073,0.0181 -0.004,-0.19844 z m -201.574765,-1.52945 3.53819,-1.19871 5.42396,-1.55823 5.42396,-1.55822 3.30729,-0.80377 3.30729,-0.80377 3.175,-0.67749 3.175,-0.6775 2.91042,-0.76487 2.91041,-0.76487 -2.17371,-0.024 -2.17372,-0.024 -2.98566,0.41519 -2.98566,0.41519 -4.37358,1.01726 -4.37358,1.01725 -3.8285,1.10488 -3.8285,1.10488 -3.28607,1.18981 -3.28606,1.18982 -2.2244,1.02767 -2.224409,1.02768 0.16827,0.27227 0.16827,0.27227 h 0.348799 0.3488 l 3.53819,-1.19871 z m 195.737695,0.80184 -0.0367,-0.26458 -3.21264,-1.34786 -3.21264,-1.34786 -4.36562,-1.47631 -4.36563,-1.47632 -4.89479,-1.20338 -4.89479,-1.20337 -3.65563,-0.66881 -3.65564,-0.6688 -2.69436,0.0237 -2.69437,0.0237 1.32292,0.36761 1.32291,0.3676 6.4823,1.45496 6.48229,1.45496 2.91041,0.77378 2.91042,0.77376 3.57187,1.07803 3.57188,1.07802 3.96875,1.30954 3.96875,1.30955 0.60354,-0.0466 0.60354,-0.0466 -0.0367,-0.26459 z m -123.87637,-0.0276 -0.15985,-0.15985 -0.34727,0.13897 -0.34726,0.13896 0.50712,0.0209 0.50711,0.0209 -0.15985,-0.15985 z m 52.3875,-0.79375 -0.15985,-0.15985 -0.34727,0.13897 -0.34726,0.13896 0.50711,0.0209 0.50712,0.0209 -0.15985,-0.15985 z m -56.620835,-0.26458 -0.15985,-0.15985 -0.34727,0.13896 -0.34726,0.13897 0.50711,0.0209 0.50712,0.0209 -0.15985,-0.15986 z m -2.11667,-0.52917 -0.15985,-0.15985 -0.34727,0.13897 -0.34726,0.13896 0.50712,0.0209 0.50711,0.0209 -0.15985,-0.15985 z m -74.076489,-0.70004 -0.10892,-0.33073 -0.57459,-0.0846 -0.57459,-0.0846 v 0.23889 0.23889 l 0.17639,0.17639 0.17639,0.17639 h 0.50712 0.50712 z m 209.614814,-0.0661 v -0.39687 h -0.52917 -0.52916 v 0.39687 0.39688 h 0.52916 0.52917 z m -141.576995,-1.65364 -0.59724,-0.99219 -0.43006,-0.66146 -0.43006,-0.66146 -1.00653,-2.38125 -1.00653,-2.38125 -2.23728,-4.56406 -2.23728,-4.56406 h -0.15693 -0.15693 l -3.3326,1.76292 -3.3326,1.76292 -0.85128,0.4199 -0.85128,0.41988 -0.009,0.71199 -0.009,0.71199 0.21601,0.1335 0.21601,0.13351 3.67565,-1.82657 3.67565,-1.82658 0.0463,0.055 0.0463,0.055 1.06077,2.11667 1.06077,2.11666 1.25269,2.11667 1.25268,2.11667 0.80695,1.19062 0.80695,1.19063 1.4317,1.91823 1.4317,1.91822 h 0.13044 0.13044 l -0.59724,-0.99218 z m -67.179249,-1.69314 0.66146,-0.22533 -0.977,0.11331 -0.977,0.11331 -1.2253,0.54201 -1.22529,0.54201 0.16576,0.26821 0.16576,0.26821 1.37508,-0.6982 1.37507,-0.69821 z m 210.343744,1.08952 v -0.27289 l -0.33073,-0.0941 -0.33073,-0.0941 -1.41944,-0.42681 -1.41945,-0.4268 -0.30034,0.0203 -0.30035,0.0203 1.5875,0.75322 1.5875,0.75322 0.46302,0.0203 0.46302,0.0203 v -0.27288 z m -212.617364,-2.36188 1.74445,-0.78268 v -0.17204 -0.17205 l -0.7276,0.17694 -0.7276,0.17694 -1.51622,0.54678 -1.5162204,0.54678 0.14277,0.23101 0.1427704,0.231 h 0.3566 0.35659 z m 213.611794,0.45196 -0.108,-0.33073 -1.41528,-0.45967 -1.41527,-0.45966 -0.94617,-0.13987 -0.94617,-0.13986 0.52917,0.2573 0.52917,0.25731 1.5875,0.64296 1.5875,0.64297 0.35277,0.03 0.35278,0.03 z m -214.732714,-2.35433 1.80704,-0.83292 v -0.24481 -0.24482 l -0.33073,0.0886 -0.33073,0.0886 -1.91823,0.64432 -1.9182304,0.64433 v 0.34479 0.3448 h 0.44192 0.44192 z m 216.119534,0.32953 v -0.23882 l -1.87689,-0.57008 -1.87689,-0.57009 -0.57051,0.0813 -0.5705,0.0813 1.85208,0.70706 1.85209,0.70706 0.59531,0.0205 0.59531,0.0205 v -0.23881 z m -217.9802144,-2.11187 1.6833504,-0.76317 0.52916,-0.20942 0.52917,-0.20942 -0.62275,-0.10773 -0.62276,-0.10774 -1.6262004,0.59227 -1.62621,0.59227 -0.2283,0.20042 -0.2283,0.20043 0.17777,0.28763 0.17777,0.28764 h 0.087 0.087 z m 219.3031344,0.1524 v -0.3462 l -2.43811,-0.7082 -2.43811,-0.70819 -0.22182,0.22182 -0.22182,0.22182 1.53545,0.44283 1.53545,0.44282 0.66146,0.38037 0.66146,0.38037 0.46302,0.009 0.46302,0.009 v -0.3462 z M 8.7951956,137.2925 l 1.9205604,-0.83933 0.25135,-0.219 0.25136,-0.21899 h -0.43149 -0.43149 l -2.1349704,0.70339 -2.13497,0.70339 v 0.35494 0.35494 h 0.39455 0.39454 z m 221.2744044,0.33325 -0.14926,-0.2415 -2.25444,-0.70262 -2.25444,-0.70262 -0.45619,0.0898 -0.45619,0.0898 2.24896,0.83761 2.24896,0.83761 0.61093,0.0167 0.61092,0.0167 -0.14925,-0.2415 z m -222.1316544,-2.40432 2.5132304,-0.92605 -0.6241804,-0.0883 -0.62417,-0.0883 -2.2201,0.69219 -2.2201,0.69219 v 0.21194 0.21194 l 0.18191,0.1819 0.1819,0.1819 0.14914,-0.0717 0.14914,-0.0717 z m 223.5725944,0.57115 v -0.2226 l -2.72184,-0.83574 -2.72184,-0.83573 h -0.36497 -0.36496 l 0.18181,0.1818 0.1818,0.18181 2.1774,0.85921 2.17739,0.85922 0.72761,0.0173 0.7276,0.0173 v -0.2226 z m -102.84785,-4.21621 1.18121,-1.79297 1.20502,-2.24192 1.20502,-2.24193 0.71308,-1.79733 0.71309,-1.79734 -0.13143,-0.13142 -0.13142,-0.13143 -1.43414,2.8548 -1.43415,2.8548 -1.66413,3.10886 -1.66413,3.10885 h 0.13038 0.13038 z m -6.49121,1.06622 -3.10885,-0.0838 -3.10886,0.0838 -3.10885,0.0838 h 6.21771 6.21771 z m -52.123085,-3.12852 3.90277,-2.00318 0.90942,-2.03171 0.90942,-2.03171 2.6834,-5.37342 2.6834,-5.37344 -0.33952,-2.29949 -0.33951,-2.2995 -0.27412,-3.83645 -0.27413,-3.83646 -0.003,-0.595314 -0.003,-0.59532 -0.46302,-0.003 -0.46302,-0.003 -1.38203,-0.64344 -1.38203,-0.64345 -0.60143,0.84447 -0.60143,0.84447 -1.26399,1.936074 -1.26399,1.93607 -1.21987,2.4289 -1.21986,2.4289 -0.92213,2.3819 -0.92213,2.38191 -0.62853,2.09282 -0.62853,2.09282 -0.63929,3.33114 -0.63929,3.33114 -0.18247,2.17349 -0.18247,2.17348 2.07724,-1.24979 2.07723,-1.2498 0.73658,-0.52681 0.73659,-0.52682 1.19978,-0.88586 1.19977,-0.88586 0.0949,0.0949 0.0949,0.0949 -0.48926,1.45238 -0.48926,1.45238 -1.304,1.20339 -1.30401,1.20339 -2.016,1.31015 -2.01601,1.31015 -0.008,0.19844 -0.008,0.19856 h 0.13213 0.13212 z m 37.738675,-1.89942 -0.68556,-1.52135 -1.00063,-2.77812 -1.00063,-2.77813 -0.31282,-1.51755 -0.31282,-1.51754 0.18667,-0.30204 0.18667,-0.30203 1.90055,3.94246 1.90054,3.94247 1.13591,1.91201 1.1359,1.91201 h 0.11145 0.11145 l -0.30091,-0.56225 -0.30091,-0.56225 -0.63444,-1.86534 -0.63444,-1.86534 v -0.0588 -0.0588 l 1.74398,-0.3037 1.74399,-0.3037 2.08102,-0.6574 2.08101,-0.65739 1.59439,-0.9012 1.59439,-0.9012 0.99675,-0.72556 0.99676,-0.72557 1.62558,-1.66138 1.62558,-1.66139 1.06688,-1.63282 1.06687,-1.63281 0.57184,-1.52909 0.57184,-1.52908 -0.57443,-1.28113 -0.57444,-1.28112 -0.54975,1.45521 -0.54975,1.45521 -0.64453,1.15541 -0.64453,1.15541 -1.1714,1.5403 -1.17141,1.54031 -1.64709,1.49536 -1.6471,1.49537 -1.75318,1.04514 -1.75319,1.04514 -2.14846,0.90611 -2.14845,0.9061 -1.33487,0.17708 -1.33486,0.17707 -0.37747,-0.49856 -0.37748,-0.49857 -0.008,-0.15633 -0.008,-0.15633 1.49454,-0.33447 1.49454,-0.33446 2.14348,-0.9501 2.14348,-0.9501 2.42924,-1.80517 2.42925,-1.80518 1.09464,-1.24359 1.09465,-1.24359 1.22036,-1.83568 1.22036,-1.83568 0.61356,-1.69034 0.61356,-1.69035 v -0.60841 -0.60842 l -0.55683,-0.50403 -0.55684,-0.50402 -5.20037,-0.0927 -5.20037,-0.0926 -1.3204,1.4268 -1.3204,1.4268 -1.45441,1.70856 -1.45441,1.70856 -1.93855,2.24896 -1.93854,2.24896 -1.3034,1.5007 -1.30339,1.5007 v 0.39098 0.39098 l 0.94393,2.47395 0.94393,2.47395 1.74705,3.63802 1.74704,3.63802 h 0.2161 0.21611 l -0.68556,-1.52136 z m -0.30233,-10.32213 -0.3331,-0.22921 1.52372,-0.47841 1.52373,-0.47841 2.01336,-1.01014 2.01336,-1.01014 2.15566,-1.62433 2.15565,-1.62434 1.89609,-2.22676 1.89608,-2.22677 0.74679,-1.12557 0.74678,-1.12556 10e-4,0.45322 0.001,0.45323 -0.53718,1.36283 -0.53717,1.36282 -0.83585,1.22666 -0.83585,1.22665 -1.47124,1.54617 -1.47125,1.54618 -2.11667,1.39729 -2.11666,1.39729 -1.55018,0.56934 -1.55017,0.56934 -1.49253,0.13892 -1.49254,0.13892 -0.3331,-0.22922 z m 59.07509,10.32213 -0.18441,-0.46302 -0.91227,-2.98818 -0.91228,-2.98819 -1.42088,-5.74306 -1.42087,-5.74308 -0.29687,-1.95432 -0.29687,-1.95433 0.0835,-0.0835 0.0835,-0.0835 1.76584,4.41904 1.76583,4.41905 1.09049,3.39617 1.09048,3.39616 0.10234,-0.10234 0.10234,-0.10233 -0.89971,-3.47177 -0.89971,-3.47178 -0.94379,-3.15663 -0.94379,-3.15663 0.008,-0.36959 0.008,-0.3696 0.22917,0.39688 0.22916,0.39687 1.47391,4.29907 1.47392,4.29907 0.42021,0.72802 0.42021,0.72802 -0.15737,-0.92604 -0.15737,-0.92605 -0.15915,-1.19062 -0.15916,-1.19064 0.1674,0.15218 0.1674,0.15217 0.4018,1.03846 0.40181,1.03845 -0.15848,-1.05833 -0.15849,-1.05834 -1.26872,-3.30729 -1.26872,-3.30729 -0.1979,-0.66146 -0.1979,-0.66146 -1.04214,-2.08174 -1.04214,-2.08173 -1.19101,-1.79112 -1.19102,-1.791124 -0.51425,0.13448 -0.51426,0.13448 -0.14378,0.23264 -0.14378,0.23265 h -0.49793 -0.49794 l -0.15711,0.25421 -0.15712,0.25422 -0.25433,3.780684 -0.25433,3.78068 -0.30036,2.84836 -0.30036,2.84835 3.1882,6.54437 3.18819,6.54435 0.39772,0.97498 0.39773,0.97498 1.01287,0.10502 1.01288,0.10502 0.35904,0.0445 0.35903,0.0445 z m -3.41139,-21.11075 -0.16498,-0.42993 0.008,-0.1768 0.008,-0.17679 0.28079,0.48286 0.28079,0.48287 -0.12386,0.12385 -0.12386,0.12386 -0.16498,-0.42992 z m -132.721225,7.41856 v -3.57188 h -0.52917 -0.52917 v 3.57188 3.57188 h 0.52917 0.52917 z m 176.477075,0.0248 v -3.5471 l -0.52917,0.13838 -0.52916,0.13838 v 3.40872 3.40874 h 0.52916 0.52917 z m -155.720515,0.67096 -0.25136,-0.23033 -3.30729,-0.43182 -3.30729,-0.43181 -0.90399,8e-4 -0.90399,7.9e-4 0.15391,0.15391 0.15391,0.15391 2.86674,0.48285 2.86675,0.48284 1.44198,0.0247 1.44198,0.0247 -0.25135,-0.23033 z m 138.697675,-0.19598 3.13222,-0.42632 0.39687,-0.22711 0.39688,-0.2271 -0.77886,-0.008 -0.77887,-0.008 -3.18988,0.42616 -3.18989,0.42617 -0.25136,0.2353 -0.25135,0.2353 h 0.69101 0.69101 l 3.13222,-0.42631 z m -90.13742,-1.1537 0.27918,-0.52165 3.88051,-4.70387 3.88051,-4.70386 2.48791,-2.88386 2.48791,-2.883854 0.2792,-0.61279 0.27921,-0.612789 -0.66737,-0.86898 -0.66737,-0.86898 -4.33758,-4.39746 -4.33759,-4.39747 -0.78806,-0.17124 -0.78807,-0.17123 -1.55396,0.40664 -1.55396,0.40665 -2.65186,1.36217 -2.65186,1.36217 -2.276475,1.50079 -2.27647,1.50079 -1.98438,1.65983 -1.98437,1.65983 -1.41975,1.336909 -1.41975,1.33691 0.16902,2.403404 0.16902,2.40339 0.26743,3.57188 0.26743,3.57187 0.12967,0.8294 0.12967,0.8294 2.04426,0.18086 2.04425,0.18085 5.556255,0.79933 5.55625,0.79932 0.11024,0.10865 0.11024,0.10865 h 0.47576 0.47576 z m 44.39643,-0.40057 4.42321,-0.64867 3.0307,-0.28293 3.03071,-0.28293 0.0638,-0.0638 0.0638,-0.0638 0.39165,-4.09332 0.39164,-4.09333 0.17076,-2.25695 0.17076,-2.256954 -3.738,-3.299299 -3.73801,-3.2993 -2.03559,-1.40749 -2.03558,-1.4075 -1.65646,-0.93195 -1.65646,-0.93196 -2.18,-0.87233 -2.18,-0.87234 -1.12591,-0.13666 -1.1259,-0.13667 -1.23023,1.0166 -1.23022,1.0166 -3.02815,3.25789 -3.02815,3.2579 -0.94835,1.1451 -0.94834,1.1451 0.3795,0.614069 0.3795,0.61408 1.85208,2.05031 1.85209,2.050304 2.34444,2.93739 2.34444,2.93739 2.28577,3.12851 2.28576,3.12851 1.00075,-0.15644 1.00074,-0.15644 z m -83.286165,-1.69315 v -0.2341 l -1.52136,-0.18875 -1.52135,-0.18875 -4.10104,-0.73944 -4.10104,-0.73944 -1.32292,-0.17923 -1.32292,-0.17924 1.11724,1.13196 1.11724,1.13195 3.77756,0.16541 3.77755,0.16541 2.05052,0.0442 2.05052,0.0442 z m 121.940175,-0.0151 4.59747,-0.22147 0.89077,-1.00125 0.89077,-1.00125 -0.0781,-0.0781 -0.0781,-0.0781 -3.16115,0.4988 -3.16115,0.49879 -3.70417,0.58606 -3.70417,0.58605 -0.25135,0.22986 -0.25135,0.22987 1.70656,-0.0139 1.70656,-0.0139 4.59747,-0.22147 z m 10.49341,-0.94458 3.16537,-0.42905 5.55625,-0.91849 5.55625,-0.91849 2.98111,-0.5586 2.98111,-0.55859 -0.10249,-0.1025 -0.1025,-0.1025 -3.54007,0.26311 -3.54008,0.26311 -5.02708,0.29604 -5.02708,0.29605 -0.46302,0.12988 -0.46302,0.1299 v -0.94388 -0.94387 h -0.12816 -0.12817 l -2.62864,2.13487 -2.62864,2.13487 -0.15967,0.4161 -0.15967,0.41609 0.34642,-0.2875 0.34641,-0.2875 z m -149.276045,-1.82687 -2.85858,-2.22691 -0.20365,0.12586 -0.20364,0.12585 v 0.78318 0.78318 l -0.59532,-0.12627 -0.59531,-0.12626 -3.70416,-0.27579 -3.70417,-0.27579 -4.0403,-0.26444 -4.0403,-0.26445 h -0.56786 -0.56786 l 0.13351,0.13351 0.13352,0.13351 6.06214,1.07403 6.06215,1.07402 4.89479,0.7501 4.89479,0.7501 0.87942,0.0267 0.87942,0.0267 -2.85859,-2.22691 z m 63.004775,0.0716 0.78627,-0.88741 2.3331,-2.48087 2.3331,-2.48088 0.38813,-0.75054 0.38812,-0.75056 1.09613,-0.29515 1.09613,-0.29516 4.72321,0.087 4.7232,0.087 -2.7e-4,-0.0524 -2.6e-4,-0.0524 -1.27533,-1.535084 -1.27532,-1.5351 -0.4602,-0.70516 -0.4602,-0.705179 0.35889,-0.0886 0.35889,-0.0886 3.29399,-3.70417 3.294,-3.70416 1.92105,-2.01583 1.92105,-2.01582 -1.59174,-2.075984 -1.59175,-2.075984 -0.33581,-0.187926 -0.3358,-0.187925 -2.77076,-0.319209 -2.77075,-0.319212 -4.63021,-0.01217 -4.63021,-0.01217 -2.51354,0.31864 -2.51354,0.318641 -0.84713,0.152339 -0.84712,0.152342 -1.40183,1.891178 -1.40185,1.89117 -0.0597,0.132291 -0.0597,0.132292 4.52675,4.630207 4.52675,4.63021 1.02306,1.34696 1.02307,1.34696 v 0.334099 0.33409 l -2.04725,2.55227 -2.04725,2.552284 -2.45889,3.04271 -2.45889,3.0427 -0.19738,0.26459 -0.19738,0.26458 -0.65071,0.92247 -0.65072,0.92247 0.79017,-0.56423 0.79018,-0.56423 0.78627,-0.8874 z m 73.95852,-1.7946 6.2177,-1.06293 1.42518,-0.27171 1.42517,-0.27171 h 0.0962 0.0962 v 1.32291 1.32292 l 0.19844,-0.002 0.19844,-0.002 1.49412,-1.25442 1.49412,-1.25442 1.54859,-1.23259 1.54858,-1.23259 1.04797,-0.88408 1.04797,-0.88408 1.00955,-0.897 1.00954,-0.897004 -0.12035,-0.12034 -0.12034,-0.12035 -2.33405,0.6737 -2.33404,0.673704 -3.43958,0.92063 -3.43958,0.92063 -3.83646,1.3073 -3.83646,1.3073 -3.77031,1.40027 -3.77031,1.40027 v 0.239 0.23901 l 0.46302,-0.13839 0.46302,-0.1384 6.21771,-1.06293 z M 46.302215,106.37679 v -1.32795 l 0.59531,0.13343 0.59531,0.13344 6.35,1.08648 6.35,1.08649 1.19062,0.14324 1.19063,0.14324 -0.13229,-0.14198 -0.13229,-0.14197 -4.10105,-1.50293 -4.10104,-1.50294 -2.56386,-0.91306 -2.56386,-0.91305 -2.19864,-0.66371 -2.19864,-0.6637 -4.47235,-1.18267 -4.47236,-1.182674 -0.10996,0.10996 -0.10997,0.10997 1.8042,1.461014 1.80419,1.46101 3.43959,2.78801 3.43958,2.788 0.19844,0.0102 0.19844,0.0102 v -1.32795 z m 17.46249,-3.0169 v -0.37612 l -1.91061,-0.88065 -1.91061,-0.88066 h -0.13628 -0.13629 l -0.089,0.46225 -0.089,0.46225 0.74686,0.29627 0.74685,0.29627 1.32292,0.4887 1.32292,0.48871 0.0661,0.01 0.0661,0.01 v -0.37611 z m 110.762775,-0.30456 1.81744,-0.68067 0.20711,-0.20113 0.20711,-0.20113 -0.16014,-0.41732 -0.16014,-0.41733 -2.03135,0.92518 -2.03134,0.92518 -0.0926,0.0918 -0.0926,0.0918 0.1744,0.28218 0.1744,0.28219 h 0.0852 0.0852 z m 9.88723,-3.566024 3.83646,-1.37226 0.59531,-0.13179 0.59531,-0.13178 v -0.79122 -0.791199 l -0.46302,0.17203 -0.46302,0.172029 -4.89479,1.87427 -4.89479,1.874284 -0.23357,0.21317 -0.23357,0.21318 0.1496,0.38985 0.1496,0.38985 1.01001,-0.35408 1.01001,-0.35408 z m -126.556025,1.463524 0.0885,-0.26964 -4.16887,-1.638194 -4.16887,-1.6382 -1.40694,-0.54275 -1.40694,-0.542749 0.084,0.705859 0.084,0.70587 0.92604,0.33316 0.92604,0.33316 3.96875,1.45969 3.96875,1.459694 0.50844,-0.0481 0.50844,-0.0481 z m 8.28608,-1.780894 -0.001,-0.33073 -2.25436,-1.1514 -2.25435,-1.1514 -0.35359,0.29345 -0.35359,0.29345 -0.46246,-1.210909 -0.46245,-1.21092 0.56047,-0.59659 0.56048,-0.5966 -0.17881,-0.17881 -0.17881,-0.17881 h -0.59684 -0.59684 l -0.30562,-0.92604 -0.30562,-0.92604 h -0.21794 -0.21792 l -0.56339,0.95487 -0.56339,0.95487 -1.18254,-0.17733 -1.18254,-0.17734 v 0.33435 0.33434 l 0.78107,0.80635 0.78106,0.80634 -0.22403,0.99219 -0.22404,0.992189 h 0.37973 0.37973 l 0.76526,-0.56579 0.76527,-0.565779 0.96801,0.571139 0.968,0.57113 0.43883,0.084 0.43882,0.084 2.23496,1.10131 2.23497,1.1013 h 0.21243 0.21243 l -10e-4,-0.33073 z m 106.523145,-0.71044 2.2218,-1.04117 v -0.41404 -0.41404 l -0.33073,0.009 -0.33073,0.009 -2.10269,1.1154 -2.10269,1.11541 -0.10217,0.33073 -0.10217,0.33072 h 0.31379 0.31379 l 2.2218,-1.04117 z m 7.09509,-2.372249 -0.17202,-1.29676 0.69207,-0.45347 0.69208,-0.45346 v -0.49367 -0.49368 l -1.12853,0.15468 -1.12853,0.15468 -0.46435,-0.97374 -0.46435,-0.97375 -0.3132,0.10439 -0.31319,0.1044 -0.21816,0.8419 -0.21816,0.8419 h -0.78618 -0.78619 v 0.22358 0.22357 l 0.51931,0.46997 0.51931,0.46997 -0.39531,0.94611 -0.39531,0.94612 0.13627,0.355099 0.13626,0.3551 1.01286,-0.58293 1.01286,-0.582919 1.03725,0.704829 1.03726,0.70483 h 0.08 0.08 z m -134.519125,0.36416 v -0.40342 l -0.67868,-0.25803 -0.67868,-0.25804 h -0.37965 -0.37965 v 0.35644 0.35645 l 0.59531,0.287109 0.59531,0.2871 0.46302,0.0179 0.46302,0.0179 v -0.403419 z m 146.958815,0.145389 0.67869,-0.258029 v -0.40343 -0.40342 h -0.22511 -0.2251 l -0.83323,0.29047 -0.83323,0.29046 v 0.371 0.370989 h 0.37965 0.37965 z M 68.262625,95.298627 v -0.23528 l -2.97656,-1.84821 -2.97656,-1.84821 -1.98438,-1.18415 -1.98437,-1.18415 -1.7198,-0.97842 -1.71979,-0.97841 -3.3662,-2.222665 -3.36621,-2.222664 -0.17083,0.276404 -0.17083,0.276408 0.36204,0.339849 0.36203,0.33985 2.77813,1.841698 2.77812,1.8417 3.55558,2.34506 3.55557,2.34506 3.1913,1.659 3.1913,1.659 0.33073,0.007 0.33073,0.007 v -0.23525 z m 103.695165,-1.58631 3.32879,-1.8216 6.41615,-4.26528 6.41615,-4.265273 v -0.263123 -0.263123 l -0.33073,0.0208 -0.33073,0.0208 -1.12282,0.706806 -1.12281,0.706807 -4.03656,2.543276 -4.03656,2.54328 -0.66146,0.34329 -0.66146,0.34329 -4.03489,2.50204 -4.0349,2.50204 v 0.23378 0.2338 h 0.44152 0.44151 z M 36.839625,69.803129 l 0.0699,-23.481831 -0.8599,6.1e-5 -0.85989,6.1e-5 v 23.662633 23.662634 l 0.7276,0.0837 0.72761,0.0837 0.0624,-0.26458 0.0624,-0.26459 z m 17.61718,23.695208 -0.0863,-0.44808 -2.88277,-1.41768 -2.88276,-1.41768 -0.28015,0.28015 -0.28015,0.28015 0.38554,0.36881 0.38553,0.36881 2.64583,1.21214 2.64584,1.21214 0.21784,0.005 0.21783,0.005 -0.0863,-0.44808 z m 145.949405,0.1895 0.68011,-0.25858 -0.0676,-23.487773 -0.0676,-23.487773 -0.70324,-0.08137 -0.70324,-0.08137 -0.14066,0.742826 -0.14067,0.742828 0.0803,23.018749 0.0803,23.018753 0.036,0.0661 0.036,0.0662 h 0.11507 0.11506 z m -15.27036,-1.20444 2.56457,-1.19843 0.19821,-0.32071 0.19821,-0.32071 -0.23616,-0.23615 -0.23615,-0.23616 -2.72939,1.31715 -2.72939,1.31715 -0.36312,0.43815 -0.36313,0.43815 h 0.56588 0.56589 z M 30.682385,59.116754 l -0.0225,-32.712997 0.2144,-0.200375 0.2144,-0.200376 3.04271,-1.195047 3.0427,-1.195046 2.38125,-0.841028 2.38125,-0.841026 5.68855,-1.946211 5.68854,-1.946212 -0.37362,-0.0137 -0.37362,-0.01371 -1.34618,0.393771 -1.34617,0.393774 -6.08541,1.870805 -6.08542,1.870805 -2.91042,1.064136 -2.91041,1.064138 -1.10948,0.395214 -1.10948,0.39521 -0.0811,32.98701 -0.0811,32.986988 0.0818,0.19844 0.0818,0.19843 h 0.5201 0.52011 z m 135.523325,32.368773 0.34962,-0.34423 2.2961,-1.70629 2.29609,-1.7063 1.66592,-1.19062 1.66592,-1.19063 1.82509,-1.521352 1.82508,-1.521354 h 0.36446 0.36447 v -0.396875 -0.396875 h -0.43388 -0.43387 l -4.79165,3.626326 -4.79164,3.62633 -1.38806,1.07002 -1.38805,1.07003 -0.001,0.46302 -0.001,0.46302 h 0.1134 0.11339 l 0.34963,-0.34422 z M 206.772,58.62224 V 25.554455 l -1.5875,-0.632346 -1.5875,-0.632347 -3.30729,-1.187722 -3.30729,-1.187725 -4.10104,-1.312699 -4.10105,-1.312695 -2.61176,-0.78327 -2.61177,-0.783267 -0.0916,0.09156 -0.0916,0.09157 2.96791,1.017997 2.96791,1.018 5.68854,2.063269 5.68854,2.063268 2.51354,1.055656 2.51355,1.055656 0.0672,32.844399 0.0672,32.844398 0.46198,-0.0891 0.46199,-0.0891 z M 70.643875,91.310007 v -0.25516 l -6.37377,-4.77192 -6.37376,-4.771926 h -0.37311 -0.37311 v 0.396875 0.396875 h 0.30147 0.30147 l 1.74905,1.3984 1.74905,1.398397 2.51354,1.860369 2.51355,1.86036 1.63723,1.10558 1.63724,1.10557 0.16432,0.26587 0.16431,0.26587 h 0.38126 0.38126 z m 16.43792,-0.20786 0.36312,-0.46302 -0.46302,0.36312 -0.46302,0.36313 v 0.0999 0.0999 h 0.0999 0.0999 z m 8.175295,-5.01598 2.77116,-1.346143 1.05834,-0.288423 1.05833,-0.288419 1.08425,-0.267123 1.08425,-0.267121 1.38132,-1.588135 1.38131,-1.588135 h -0.55888 -0.55889 l -1.37751,1.423207 -1.37752,1.423209 -1.81083,0.438084 -1.81082,0.438084 -1.84565,0.929452 -1.84565,0.929453 -1.769905,1.11186 -1.7699,1.11186 -1.24089,0.92604 -1.2409,0.92604 -0.12571,0.30015 -0.1257,0.30014 2.43431,-1.63897 2.434315,-1.63897 z m -48.047365,4.18606 0.14499,-0.2346 -0.40517,-0.33627 -0.40518,-0.33626 -0.3173,0.3173 -0.31731,0.3173 0.39467,0.24952 0.39466,0.24951 0.18282,0.004 0.18283,0.004 0.14499,-0.2346 z m 142.711445,-0.36374 0.0886,-0.45999 h -0.38388 -0.38388 l -0.29468,0.35508 -0.29469,0.35507 0.18324,0.18324 0.18324,0.18324 0.40674,-0.0783 0.40674,-0.0783 z m -117.207575,-0.64066 -0.0857,-0.44526 -1.71959,-1.43973 -1.71959,-1.43972 -1.28508,-1.157725 -1.28508,-1.157724 h -0.23627 -0.23628 v 0.343178 0.343177 l 2.84427,2.477044 2.84427,2.47704 0.0882,0.22249 0.0882,0.22249 h 0.39423 0.39423 z m 92.407785,-0.61466 1.16937,-1.05993 1.78078,-1.51976 1.78079,-1.519768 0.005,-0.478636 0.005,-0.478634 -0.23276,0.143849 -0.23275,0.143848 -0.86273,0.731663 -0.86274,0.731658 -2.07951,1.81008 -2.07951,1.81008 v 0.37273 0.37274 h 0.21968 0.21969 l 1.16938,-1.05992 z m -21.71709,-2.4267 -0.66145,-0.5586 -1.85209,-0.865724 -1.85208,-0.865725 -1.25677,-0.536374 -1.25677,-0.536371 v -0.27006 -0.27006 l 2.4321,0.138705 2.4321,0.138705 0.27988,0.136099 0.27988,0.136096 -0.52249,-0.423 -0.52249,-0.423002 -1.72647,-0.508267 -1.72647,-0.508268 -1.83874,-0.240842 -1.83875,-0.24084 1.71016,1.615509 1.71016,1.615512 3.30358,1.501787 3.30359,1.50179 0.13229,0.0108 0.13229,0.0108 -0.66146,-0.5586 z m 20.34973,-3.720857 0.90284,-0.678392 1.41625,0.940332 1.41624,0.940334 0.1707,-0.170693 0.17069,-0.170696 -0.30697,-1.024588 -0.30698,-1.024591 v -0.532517 -0.532516 l 0.78498,-0.325149 0.78498,-0.325146 0.32249,-0.388575 0.32249,-0.388575 -0.37987,-0.240366 -0.37986,-0.240366 -0.99873,-0.004 -0.99874,-0.0041 -0.25804,-0.678682 -0.25803,-0.678683 V 76.027721 75.0768 l 1.07344,-1.479251 1.07345,-1.479251 -1.58018,1.689349 -1.58017,1.689349 -0.48546,0.916995 -0.48545,0.916993 -1.32292,-0.137155 -1.32292,-0.137154 -0.48976,-0.192654 -0.48976,-0.192651 0.46461,0.898464 0.4646,0.898464 0.52098,0.704665 0.52097,0.704665 -1.0008,2.414505 -1.0008,2.414508 -0.22262,0.137589 -0.22263,0.137588 v 0.438369 0.43837 l 1.38907,-1.337275 1.38906,-1.337273 z m -88.623595,0.955947 -0.82867,-1.818264 -0.38774,-0.825881 -0.38773,-0.825878 0.80775,-1.196867 0.80776,-1.196866 v -0.267269 -0.267266 l -1.54318,0.13993 -1.54318,0.13993 -0.70113,-1.157208 -0.70112,-1.157208 -1.62874,-1.5875 -1.62874,-1.5875 1.40186,1.656728 1.40186,1.656726 -0.24079,1.518274 -0.2408,1.518272 -1.43467,0.132291 -1.43466,0.132292 -0.10776,0.327792 -0.10776,0.327793 1.20027,0.730541 1.20027,0.730541 -0.10154,0.396875 -0.10154,0.396875 -0.17487,1.124479 -0.17488,1.124479 h 0.35985 0.35985 l 1.01634,-0.837753 1.01634,-0.837753 0.88631,0.477314 0.88632,0.477313 1.39877,1.258327 1.39878,1.258321 0.0779,-0.0718 0.0779,-0.0718 z m 20.913245,0.419095 2.90152,-0.805349 0.86596,-0.361821 0.86596,-0.36182 0.72814,-0.817205 0.72813,-0.817206 h -1.15034 -1.15035 l -2.09284,0.532413 -2.09285,0.532411 -2.44996,1.228902 -2.449985,1.228902 0.10399,0.103984 0.10398,0.103984 1.649725,-0.555747 1.64971,-0.555749 0.43169,0.08499 0.43169,0.08499 -1.71979,0.57845 -1.719795,0.578454 0.731955,0.01138 0.73195,0.01138 2.90151,-0.805349 z m 39.24455,-0.315489 -0.57544,-0.265213 -0.87976,-1.299456 -0.87977,-1.299456 -0.60763,-0.155962 -0.60763,-0.155958 -0.1195,0.119499 -0.1195,0.119499 1.41768,1.56592 1.41768,1.565924 0.76466,0.03521 0.76466,0.03521 z m -93.351635,-0.311611 1.05833,-0.366146 0.8323,-2.871015 0.83229,-2.871015 1.72551,-6.085416 1.72552,-6.085416 2.96344,-10.186458 2.96343,-10.186458 1.12406,-3.836458 1.12405,-3.836458 1.79054,-6.085417 1.79054,-6.085416 0.75678,-2.645833 0.75678,-2.645833 0.002,-0.307748 0.002,-0.307745 -0.85989,0.281716 -0.8599,0.281712 -0.29668,0.07081 -0.29668,0.07081 -0.17585,0.748975 -0.17584,0.748972 -1.17392,3.968749 -1.17393,3.96875 -1.88265,6.35 -1.88264,6.35 -1.94112,6.746874 -1.94111,6.746875 -3.30025,11.509374 -3.30026,11.509375 -0.68839,2.549271 -0.68839,2.549271 v 0.162708 0.162708 l 0.0661,-0.004 0.0661,-0.004 1.05834,-0.366149 z m 151.575095,-1.27953 -0.19467,-0.330729 -4.30494,-6.35 -4.30494,-6.349999 -1.10562,-1.5875 -1.10562,-1.5875 -1.86897,-2.645833 -1.86898,-2.645834 -3.07666,-4.233333 -3.07665,-4.233333 -2.48219,-3.439583 -2.48219,-3.439583 -3.51902,-4.688708 -3.51902,-4.688707 v -0.257249 -0.257252 l 2.27785,-1.800915 2.27785,-1.800919 4.42332,-3.571874 4.42332,-3.571875 3.61758,-2.852063 3.61758,-2.852063 v -0.256791 -0.256791 l -0.46302,-0.0088 -0.46302,-0.0088 -6.21771,-1.555551 -6.21771,-1.555549 -1.19062,0.965084 -1.19063,0.96508 -5.55625,4.726485 -5.55625,4.726482 -0.53518,0.436827 -0.53519,0.436827 -1.64763,1.415241 -1.64762,1.415243 v -8.884679 -8.884682 l -0.59532,-0.124362 -0.59531,-0.124362 -4.82864,-0.616968 -4.82865,-0.616972 V 33.920167 56.8582 l 1.12448,0.182036 1.12448,0.182033 3.95369,0.899554 3.95369,0.899557 h 0.34579 0.34579 v -7.233406 -7.233409 l 2.18281,-0.587349 2.18281,-0.587348 1.85501,1.933778 1.855,1.933776 8.98842,11.244791 8.98842,11.244792 2.20233,2.291558 2.20233,2.291562 5.87195,3.581402 5.87196,3.5814 0.52916,0.402479 0.52917,0.402476 0.21405,0.0084 0.21405,0.0084 -0.19467,-0.330729 z m -143.494305,-3.938754 3.82546,-2.417397 1.53747,-0.782773 1.53748,-0.782772 0.26835,-0.702434 0.26836,-0.702432 2.33163,-7.629964 2.33164,-7.629966 0.23578,-0.235781 0.23578,-0.235783 9.06343,-3.083349 9.06342,-3.083345 0.1294,0.1294 0.1294,0.129399 1.47923,4.469696 1.47924,4.469694 0.0872,0.313629 0.0872,0.313629 2.85914,-0.778928 2.85913,-0.778925 2.31511,-0.548934 2.315105,-0.548934 v -0.211706 -0.211706 l -1.54977,-4.198022 -1.549775,-4.198019 -4.91727,-13.096875 -4.91727,-13.096874 -1.62434,-4.233333 -1.62434,-4.233333 -0.2432,-0.613077 -0.2432,-0.613077 -0.46282,0.140939 -0.46281,0.140938 -5.29167,1.372568 -5.29166,1.372568 -0.9097,0.159735 -0.9097,0.159734 -0.22784,0.924211 -0.22783,0.92421 -1.83072,6.085417 -1.83072,6.085416 -1.97362,6.614583 -1.97361,6.614583 -2.78483,9.525 -2.78482,9.524999 -2.37195,8.334375 -2.37195,8.334374 -0.18227,0.463021 -0.18227,0.463021 h 0.23775 0.23774 z m 16.11005,-32.946775 0.22279,-0.751448 0.93537,-3.175 0.93537,-3.175 0.95944,-3.175 0.95944,-3.175 0.67589,-2.243425 0.67589,-2.243426 0.38701,0.738634 0.38701,0.738638 1.1548,3.22458 1.15481,3.224583 1.34161,3.52557 1.3416,3.525572 v 0.112448 0.112451 l -0.33073,2.46e-4 -0.33072,2.49e-4 -4.8948,1.560779 -4.89479,1.560783 -0.45139,0.182607 -0.45139,0.182608 z m 41.863315,33.33548 4.85418,-0.706472 5.82083,-0.0049 5.82084,-0.0049 3.70416,0.5631 3.70417,0.563096 2.53802,0.307602 2.53802,0.3076 0.50469,-0.103556 0.50469,-0.103555 -3.3073,-1.091737 -3.30729,-1.091739 -2.77812,-0.548251 -2.77813,-0.548251 -2.38125,-0.266084 -2.38125,-0.266083 -2.51354,0.0024 -2.51354,0.0024 -2.51354,0.260795 -2.51354,0.260797 -2.77813,0.555778 -2.77812,0.555776 -3.04271,0.932886 -3.04271,0.932887 -0.79375,0.225647 -0.79375,0.225645 2.68644,-0.127262 2.68644,-0.127262 4.85419,-0.70647 z m 64.65001,-1.696233 1.05833,-1.123416 -0.79375,0.549929 -0.79375,0.549928 -1.05833,1.123416 -1.05833,1.123415 0.79375,-0.549928 0.79375,-0.549929 z m -108.346875,0.417636 -1.43713,-1.455208 h -0.243 -0.243 l 1.51452,1.455208 1.51452,1.455209 h 0.16561 0.16561 z m 19.59289,-2.332032 0.41059,-0.506637 1.6667,0.841346 1.6667,0.841346 0.10663,-0.106633 0.10664,-0.106635 -0.83631,-2.003581 -0.8363,-2.003583 1.09977,-1.381252 1.09977,-1.381255 v -0.251042 -0.251044 l -0.7276,0.143293 -0.7276,0.143293 -1.21115,0.165512 -1.21114,0.165511 -0.47751,-0.750803 -0.47752,-0.750803 -0.69229,-0.926042 -0.69228,-0.926041 -0.26489,2.107673 -0.26489,2.107673 -2.08694,0.596628 -2.08694,0.596627 -0.13374,0.133742 -0.13375,0.133742 0.50089,0.179371 0.5009,0.179369 1.65364,0.736306 1.65365,0.736307 0.005,2.199404 0.005,2.199407 0.98701,-1.177279 0.98701,-1.177282 0.41059,-0.506638 z m 70.948455,0.250542 0.0785,-2.079638 1.50989,-0.565269 1.5099,-0.565269 0.29686,-0.298635 0.29687,-0.298633 -1.93905,-0.588401 -1.93905,-0.588404 -0.19439,-0.303589 -0.19439,-0.303588 -0.0353,-1.058333 -0.0354,-1.058333 -0.16796,-0.783506 -0.16795,-0.783505 -1.05751,1.64588 -1.05751,1.645881 -1.19063,-0.158102 -1.19062,-0.158102 -0.8599,-0.219924 -0.85989,-0.219927 v 0.246996 0.246994 l 1.17784,1.446072 1.17785,1.446075 -0.78322,1.899327 -0.78322,1.899325 0.134,0.133998 0.13399,0.133998 1.64162,-0.708318 1.64161,-0.708322 0.60193,0.730914 0.60193,0.730912 0.59893,0.849011 0.59893,0.849008 0.18847,-0.188476 0.18848,-0.188479 z m -52.83393,-3.928779 1.72553,0.850895 h 0.14511 0.14511 l -0.17748,-0.595313 -0.17748,-0.595312 -0.66412,-1.507731 -0.66412,-1.507731 1.35294,-1.555503 1.35293,-1.555504 v -0.1899 -0.189902 l -0.85989,0.132644 -0.8599,0.132643 -1.20299,0.152078 -1.203,0.152077 -1.15677,-1.794087 -1.15678,-1.794084 -0.19088,0.926042 -0.19089,0.926042 -0.17024,1.208079 -0.17023,1.20808 -1.90932,0.483655 -1.90932,0.483656 -0.36161,0.188148 -0.36161,0.188148 1.94911,0.818681 1.94911,0.818679 -0.0528,2.439331 -0.0528,2.439334 1.57344,-1.557022 1.57344,-1.55702 z m 37.10402,-0.344903 -0.0666,-2.254131 1.97686,-0.906671 1.97687,-0.906674 -0.38937,-0.131654 -0.38936,-0.131654 -1.84793,-0.49915 -1.84792,-0.49915 -0.18287,-1.037039 -0.18287,-1.037037 -0.17668,-1.058333 -0.17668,-1.058334 -0.61747,0.773856 -0.61747,0.773856 -0.45839,1.016521 -0.45838,1.016524 -0.42084,-0.115464 -0.42083,-0.115462 -1.82916,-0.179249 -1.82916,-0.17925 1.39017,1.747054 1.39017,1.747054 -0.83615,2.008532 -0.83615,2.008528 0.11947,0.11947 0.11947,0.119473 1.75514,-0.865497 1.75514,-0.865497 1.38175,1.381754 1.38176,1.381755 h 0.20208 0.20209 z m -23.74685,0.318069 1.19063,-0.787675 0.72263,-0.667242 0.72263,-0.667242 0.60028,0.311671 0.60029,0.311674 1.85208,1.310476 1.85209,1.310476 0.0658,-0.188349 0.0658,-0.188352 -0.87571,-2.702867 -0.87571,-2.702864 0.36189,-0.138869 0.36188,-0.138867 2.08584,-1.508577 2.08584,-1.508575 -0.11295,-0.182761 -0.11296,-0.182763 -2.71394,-0.04265 -2.71394,-0.04264 -0.16269,-0.186785 -0.1627,-0.186782 -0.74267,-2.116667 -0.74266,-2.116667 -0.25241,-0.50488 -0.2524,-0.504883 -0.48162,1.298633 -0.48162,1.29863 -0.47886,1.520987 -0.47886,1.520989 -2.84427,2.64e-4 -2.84427,4.69e-4 v 0.215492 0.21549 l 2.24896,1.639932 2.24896,1.639933 v 0.208155 0.208159 l -0.78908,2.500481 -0.78907,2.500482 -0.005,0.214053 -0.005,0.214051 0.33073,-0.192932 0.33073,-0.192934 1.19062,-0.787675 z m 68.2459,-7.897005 -0.32405,-0.617974 -2.91279,-4.7625 -2.9128,-4.7625 -0.9936,-1.455208 -0.9936,-1.455208 -4.51081,-6.797953 -4.51081,-6.797955 1.24534,-1.03161 1.24534,-1.031611 4.72485,-3.505236 4.72485,-3.505237 2.68348,-1.841865 2.68349,-1.841868 0.0818,-0.231645 0.0818,-0.231648 -1.23988,-0.548455 -1.23988,-0.548457 h -0.17024 -0.17024 l -4.24724,3.241145 -4.24725,3.241146 -4.39555,3.439583 -4.39556,3.439583 -0.0169,0.226214 -0.0169,0.22621 0.74514,1.096706 0.74513,1.096703 2.38447,3.307292 2.38448,3.307291 1.56675,2.276658 1.56674,2.276655 4.03306,5.793136 4.03306,5.793134 1.21402,1.543894 1.21402,1.543891 0.13217,-0.13217 0.13217,-0.13217 -0.32405,-0.617971 z M 154.51679,53.193172 v -6.621996 l -0.99218,0.101785 -0.99219,0.101788 v 6.189479 6.189483 l 0.66146,0.08855 0.66146,0.08855 0.25135,0.242181 0.25135,0.242178 h 0.0794 0.0794 z m -49.0802,3.067148 3.175,-0.385781 1.74939,-0.173262 1.74938,-0.17326 0.16884,-1.997384 0.16885,-1.997388 v -6.799468 -6.799469 l 2.84427,-0.166132 2.84427,-0.166134 4.56406,-0.178671 4.56406,-0.178673 v -0.04051 -0.04051 l 1.98438,-4.583086 1.98437,-4.583083 v -0.123913 -0.123909 l -9.39279,0.09159 -9.39278,0.09159 -0.01,-3.175 -0.01,-3.175 -0.1401,-0.964141 -0.1401,-0.964145 1.67145,-0.195495 1.67145,-0.195495 8.94095,0.101303 8.94095,0.101307 1.87649,-4.307909 1.87648,-4.307908 -0.10181,-0.09153 -0.10181,-0.09152 -5.68854,-0.297008 -5.68855,-0.297008 -9.81508,8.9e-5 -9.81508,8.8e-5 -2.4219,0.17191 -2.42189,0.171913 v 23.248751 23.248754 l 0.59531,-0.134363 0.59531,-0.134366 3.175,-0.385784 z M 37.611245,38.208626 39.635905,36.79642 h 0.16115 0.16114 l 1.65065,1.103797 1.65066,1.103799 0.59427,0.528841 0.59427,0.528844 0.14234,-0.142346 0.14234,-0.142343 -0.69691,-2.35019 -0.69691,-2.350193 -0.125,-0.418254 -0.125,-0.418256 2.33426,-1.69841 2.33425,-1.698414 -3.03956,-0.132291 -3.03957,-0.132292 -0.79456,-2.579687 -0.79456,-2.579688 h -0.19014 -0.19013 l -0.51686,1.673376 -0.51685,1.673376 -0.40251,0.963329 -0.4025,0.963332 -2.86159,0.07527 -2.86158,0.07527 2.03151,1.530483 2.03152,1.530479 0.10619,0.318561 0.10618,0.318561 -0.74864,2.493515 -0.74864,2.493516 v 0.237119 0.23712 l 0.33073,-0.190908 0.33073,-0.19091 z m 156.656415,-0.02315 2.0294,-1.389063 h 0.13419 0.13419 l 2.28909,1.601515 2.28909,1.601512 0.12232,-0.122314 0.12232,-0.122317 -0.81386,-2.540695 -0.81386,-2.540696 v -0.34915 -0.349152 l 1.25677,-0.83848 1.25677,-0.838483 0.91605,-0.793578 0.91605,-0.793578 h -2.9158 -2.91579 l -0.89713,-2.651241 -0.89712,-2.651239 -0.26695,0.468426 -0.26694,0.468429 -0.69488,2.116667 -0.69489,2.116666 -2.95432,-0.0094 -2.95432,-0.0094 v 0.169973 0.169971 l 2.11504,1.559246 2.11504,1.559245 0.001,0.396875 0.001,0.396875 -0.66079,2.466488 -0.6608,2.46649 v 0.126305 0.126347 l 0.33991,-0.211585 0.3399,-0.211585 2.0294,-1.389062 z m -40.41232,-12.808418 0.52916,-0.09691 0.0714,-5.455851 0.0714,-5.455848 -0.86517,-0.13159 -0.86517,-0.131594 -0.19844,0.116404 -0.19843,0.116401 v 5.978516 5.97852 l 0.46302,-0.410567 0.46302,-0.410567 z"
       id="path1846" />
  </g>
</svg>
